M48
; DRILL file {KiCad 7.0.6-7.0.6~ubuntu20.04.1} date Чт 31 авг 2023 23:31:40
; FORMAT={-:-/ absolute / inch / decimal}
; #@! TF.CreationDate,2023-08-31T23:31:40+07:00
; #@! TF.GenerationSoftware,Kicad,Pcbnew,7.0.6-7.0.6~ubuntu20.04.1
; #@! TF.FileFunction,Plated,2,4,Blind
FMAT,2
INCH
; #@! TA.AperFunction,Plated,Buried,ViaDrill
T1C0.0079
; #@! TA.AperFunction,Plated,Buried,ViaDrill
T2C0.0157
%
G90
G05
T1
X5.0623Y-4.2506
X5.0635Y-4.3841
X5.0643Y-4.125
X5.065Y-3.9638
X5.1409Y-3.6717
X5.3169Y-4.5952
X5.3244Y-3.5539
X5.3248Y-3.4146
X5.3433Y-3.7509
X5.4471Y-4.5881
X5.4593Y-3.7611
X5.5768Y-4.5996
X5.5891Y-3.7585
X5.7098Y-4.5996
X5.7147Y-3.765
X5.9293Y-4.1339
X5.9309Y-4.2454
X5.9329Y-3.9924
X5.9352Y-4.3805
X6.3898Y-2.3583
X6.4878Y-2.3535
X6.6963Y-3.4929
T2
X6.2928Y-3.4866
T0
M30
