M48
; DRILL file {KiCad 7.0.6-7.0.6~ubuntu20.04.1} date Чт 31 авг 2023 23:31:40
; FORMAT={-:-/ absolute / inch / decimal}
; #@! TF.CreationDate,2023-08-31T23:31:40+07:00
; #@! TF.GenerationSoftware,Kicad,Pcbnew,7.0.6-7.0.6~ubuntu20.04.1
; #@! TF.FileFunction,Plated,1,2,Blind
FMAT,2
INCH
; #@! TA.AperFunction,Plated,Buried,ViaDrill
T1C0.0079
%
G90
G05
T1
X4.0618Y-3.4031
X4.0618Y-3.4976
X4.0618Y-3.598
X4.0654Y-3.7933
X4.0669Y-3.9079
X4.0669Y-4.0075
X4.0669Y-4.1047
X4.0728Y-4.4004
X4.0728Y-4.4965
X4.0728Y-4.602
X4.0728Y-4.9004
X4.0728Y-5.0043
X4.0728Y-5.1012
X4.2575Y-2.413
X4.6134Y-2.376
X4.7335Y-3.6528
X4.7776Y-3.8272
X4.7949Y-3.9976
X4.8016Y-4.1689
X4.802Y-4.5083
X4.802Y-4.6815
X4.8039Y-4.3417
X4.9563Y-2.8161
X5.3194Y-4.1503
X5.3209Y-4.2488
X5.3268Y-4.1984
X5.3516Y-4.3685
X5.3583Y-4.1091
X5.3618Y-4.0654
X5.374Y-4.2768
X5.3827Y-4.0039
X5.4484Y-4.4098
X5.5157Y-3.9004
X5.5547Y-4.422
X5.6169Y-4.4248
X5.6287Y-3.8976
X5.6567Y-3.7311
X5.6744Y-4.4201
X5.7067Y-4.0626
X5.7067Y-4.3555
X5.7252Y-4.1071
X5.7453Y-4.2827
X5.75Y-4.1929
X5.7524Y-3.9961
X5.7787Y-3.9024
X5.8409Y-5.4161
X5.8447Y-5.1656
X6.3906Y-4.8295
X6.6635Y-4.5238
X6.6639Y-4.2925
X6.6639Y-4.7541
X6.667Y-4.9815
X6.8852Y-2.5858
T0
M30
