M48
; DRILL file {KiCad 7.0.6-7.0.6~ubuntu20.04.1} date Вт 22 авг 2023 08:41:55
; FORMAT={-:-/ absolute / inch / decimal}
; #@! TF.CreationDate,2023-08-22T08:41:55+07:00
; #@! TF.GenerationSoftware,Kicad,Pcbnew,7.0.6-7.0.6~ubuntu20.04.1
; #@! TF.FileFunction,Plated,3,4,Blind
FMAT,2
INCH
; #@! TA.AperFunction,Plated,Buried,ViaDrill
T1C0.0157
%
G90
G05
T1
X4.4866Y-5.1187
X4.6248Y-5.1187
X4.7701Y-5.1191
X5.1177Y-3.4177
X5.1409Y-3.611
X5.2447Y-4.3843
X5.2451Y-4.2524
X5.247Y-3.9642
X5.2476Y-4.124
X5.3185Y-4.4139
X5.3331Y-3.4866
X5.3429Y-3.9369
X5.4471Y-4.4061
X5.4593Y-3.9456
X5.576Y-4.4179
X5.5883Y-3.9422
X5.7106Y-4.4158
X5.713Y-3.9483
X5.7446Y-4.135
X5.7472Y-3.992
X5.7484Y-4.2466
X5.7543Y-4.3801
X6.2925Y-2.0831
T0
M30
