M48
; DRILL file {KiCad 7.0.6-7.0.6~ubuntu20.04.1} date Чт 31 авг 2023 23:31:40
; FORMAT={-:-/ absolute / inch / decimal}
; #@! TF.CreationDate,2023-08-31T23:31:40+07:00
; #@! TF.GenerationSoftware,Kicad,Pcbnew,7.0.6-7.0.6~ubuntu20.04.1
; #@! TF.FileFunction,Plated,1,3,Blind
FMAT,2
INCH
; #@! TA.AperFunction,Plated,Buried,ViaDrill
T1C0.0079
%
G90
G05
T1
X4.0429Y-2.2843
X4.7398Y-2.3067
X4.7406Y-2.3965
X4.7409Y-2.4752
X4.7409Y-2.5417
X4.7409Y-2.6157
X5.2953Y-4.1209
X5.3028Y-4.0717
X5.3043Y-4.2819
X5.3205Y-4.0232
X5.364Y-4.1673
X5.3657Y-3.9571
X5.3925Y-4.2228
X5.398Y-4.422
X5.3984Y-4.3335
X5.4732Y-3.9346
X5.5169Y-4.4358
X5.5713Y-3.9276
X5.5902Y-4.3803
X5.6843Y-4.5012
X5.6894Y-3.9244
X5.7091Y-4.3134
X5.7122Y-3.9689
X5.7157Y-4.224
X5.7303Y-4.3941
X5.7465Y-4.0362
X5.765Y-4.1528
X5.7713Y-4.0866
X5.7868Y-3.275
X6.0317Y-3.2766
X6.2921Y-3.2762
X6.3673Y-2.5854
X6.5468Y-3.2754
X6.9408Y-4.8244
X6.941Y-4.1469
X6.941Y-4.3732
X6.941Y-4.5992
T0
M30
