M48
; DRILL file {KiCad 7.0.6-7.0.6~ubuntu20.04.1} date Вт 22 авг 2023 08:41:55
; FORMAT={-:-/ absolute / inch / decimal}
; #@! TF.CreationDate,2023-08-22T08:41:55+07:00
; #@! TF.GenerationSoftware,Kicad,Pcbnew,7.0.6-7.0.6~ubuntu20.04.1
; #@! TF.FileFunction,Plated,1,4,PTH
FMAT,2
INCH
; #@! TA.AperFunction,Plated,PTH,ViaDrill
T1C0.0157
; #@! TA.AperFunction,Plated,PTH,ComponentDrill
T2C0.0394
; #@! TA.AperFunction,Plated,PTH,ComponentDrill
T3C0.0591
; #@! TA.AperFunction,Plated,PTH,ComponentDrill
T4C0.0669
; #@! TA.AperFunction,Plated,PTH,ComponentDrill
T5C0.0689
%
G90
G05
T1
X5.1551Y-3.2413
X5.2823Y-3.7144
X5.2823Y-3.7518
X5.4693Y-3.3461
X5.5163Y-4.7238
X5.5274Y-3.6707
X5.5428Y-4.7502
X5.5538Y-3.6972
X5.5565Y-2.8117
X5.5939Y-2.8117
X5.6285Y-4.7006
X5.655Y-4.727
X5.6937Y-3.0783
X5.7724Y-4.5929
X5.7787Y-4.5126
X5.813Y-3.6559
X5.8323Y-4.7866
X5.8795Y-3.6366
X5.8823Y-3.9012
X5.9165Y-2.6492
X5.9602Y-3.9055
X5.9941Y-4.3803
X5.9941Y-4.785
X6.0213Y-3.6358
X6.0346Y-3.9059
X6.1094Y-3.637
X6.1169Y-3.9075
X6.1555Y-4.7783
X6.2374Y-4.2806
X6.2634Y-4.5205
X6.5996Y-4.1827
X6.6012Y-4.411
X6.6094Y-4.6413
X6.6177Y-4.8709
T2
X3.8522Y-3.2945
X3.8522Y-3.3945
X3.8522Y-3.4945
X3.8522Y-3.5945
X3.8522Y-3.6945
X3.8522Y-3.7945
X3.8522Y-3.8945
X3.8522Y-3.9945
X3.8522Y-4.0945
X3.8522Y-4.1945
X3.8522Y-4.2945
X3.8522Y-4.3945
X3.8522Y-4.4945
X3.8522Y-4.5945
X3.8522Y-4.6945
X3.8522Y-4.7945
X3.8522Y-4.8945
X3.8522Y-4.9945
X3.8522Y-5.0945
X3.8522Y-5.1945
X3.9522Y-3.2945
X3.9522Y-3.3945
X3.9522Y-3.4945
X3.9522Y-3.5945
X3.9522Y-3.6945
X3.9522Y-3.7945
X3.9522Y-3.8945
X3.9522Y-3.9945
X3.9522Y-4.0945
X3.9522Y-4.1945
X3.9522Y-4.2945
X3.9522Y-4.3945
X3.9522Y-4.4945
X3.9522Y-4.5945
X3.9522Y-4.6945
X3.9522Y-4.7945
X3.9522Y-4.8945
X3.9522Y-4.9945
X3.9522Y-5.0945
X3.9522Y-5.1945
X4.1711Y-2.8569
X4.1711Y-2.9569
X4.1711Y-3.0569
X4.2711Y-2.8569
X4.2711Y-2.9569
X4.2711Y-3.0569
X4.4862Y-5.3569
X4.4862Y-5.4569
X4.6295Y-5.3569
X4.6295Y-5.4569
X4.7724Y-5.3573
X4.7724Y-5.4573
X4.9185Y-2.2669
X4.9185Y-2.3669
X4.9185Y-2.4669
X4.9185Y-2.5669
X5.2825Y-5.0825
X5.2825Y-5.1825
X5.2848Y-2.364
X5.2848Y-2.464
X5.3825Y-5.0825
X5.3825Y-5.1825
X5.3848Y-2.364
X5.3848Y-2.464
X5.4825Y-5.0825
X5.4825Y-5.1825
X5.4848Y-2.364
X5.4848Y-2.464
X5.811Y-2.1803
X5.811Y-2.2803
X5.9014Y-2.998
X5.9014Y-3.098
X6.1256Y-5.1996
X6.1315Y-5.4366
X6.1465Y-2.1803
X6.1465Y-2.2803
X6.1508Y-2.998
X6.1508Y-3.098
X6.2256Y-5.1996
X6.2315Y-5.4366
X6.4132Y-3.0059
X6.4132Y-3.1059
X6.4856Y-3.6785
X6.4856Y-3.7785
X6.4856Y-3.8785
X6.5085Y-3.4913
X6.5165Y-4.126
X6.5165Y-4.226
X6.5165Y-4.326
X6.5165Y-4.426
X6.5165Y-4.526
X6.5165Y-4.626
X6.5165Y-4.726
X6.5165Y-4.826
X6.5165Y-4.926
X6.5856Y-3.6785
X6.5856Y-3.7785
X6.5856Y-3.8785
X6.6085Y-3.4913
X6.6638Y-3.011
X6.6638Y-3.111
X6.6703Y-2.5858
X6.7703Y-2.5858
T3
X6.6856Y-5.3537
X6.7929Y-2.1764
T4
X6.5856Y-5.2537
X6.5856Y-5.4537
X6.6929Y-2.0764
X6.6929Y-2.2764
X6.7856Y-5.2537
X6.7856Y-5.4537
X6.8929Y-2.0764
X6.8929Y-2.2764
T5
X3.9079Y-2.111
X4.215Y-2.111
T0
M30
