%TF.GenerationSoftware,KiCad,Pcbnew,8.0.4-8.0.4-0~ubuntu24.04.1*%
%TF.CreationDate,2024-08-21T06:51:09+07:00*%
%TF.ProjectId,qpix,71706978-2e6b-4696-9361-645f70636258,rev?*%
%TF.SameCoordinates,Original*%
%TF.FileFunction,Paste,Top*%
%TF.FilePolarity,Positive*%
%FSLAX46Y46*%
G04 Gerber Fmt 4.6, Leading zero omitted, Abs format (unit mm)*
G04 Created by KiCad (PCBNEW 8.0.4-8.0.4-0~ubuntu24.04.1) date 2024-08-21 06:51:09*
%MOMM*%
%LPD*%
G01*
G04 APERTURE LIST*
G04 Aperture macros list*
%AMRoundRect*
0 Rectangle with rounded corners*
0 $1 Rounding radius*
0 $2 $3 $4 $5 $6 $7 $8 $9 X,Y pos of 4 corners*
0 Add a 4 corners polygon primitive as box body*
4,1,4,$2,$3,$4,$5,$6,$7,$8,$9,$2,$3,0*
0 Add four circle primitives for the rounded corners*
1,1,$1+$1,$2,$3*
1,1,$1+$1,$4,$5*
1,1,$1+$1,$6,$7*
1,1,$1+$1,$8,$9*
0 Add four rect primitives between the rounded corners*
20,1,$1+$1,$2,$3,$4,$5,0*
20,1,$1+$1,$4,$5,$6,$7,0*
20,1,$1+$1,$6,$7,$8,$9,0*
20,1,$1+$1,$8,$9,$2,$3,0*%
%AMRotRect*
0 Rectangle, with rotation*
0 The origin of the aperture is its center*
0 $1 length*
0 $2 width*
0 $3 Rotation angle, in degrees counterclockwise*
0 Add horizontal line*
21,1,$1,$2,0,0,$3*%
G04 Aperture macros list end*
%ADD10R,0.800000X0.300000*%
%ADD11R,0.300000X0.800000*%
%ADD12R,1.800000X1.800000*%
%ADD13RoundRect,0.200000X-0.200000X-0.275000X0.200000X-0.275000X0.200000X0.275000X-0.200000X0.275000X0*%
%ADD14RoundRect,0.200000X0.200000X0.275000X-0.200000X0.275000X-0.200000X-0.275000X0.200000X-0.275000X0*%
%ADD15RoundRect,0.150000X0.825000X0.150000X-0.825000X0.150000X-0.825000X-0.150000X0.825000X-0.150000X0*%
%ADD16RoundRect,0.250000X0.350000X0.450000X-0.350000X0.450000X-0.350000X-0.450000X0.350000X-0.450000X0*%
%ADD17RoundRect,0.200000X-0.275000X0.200000X-0.275000X-0.200000X0.275000X-0.200000X0.275000X0.200000X0*%
%ADD18RoundRect,0.200000X0.275000X-0.200000X0.275000X0.200000X-0.275000X0.200000X-0.275000X-0.200000X0*%
%ADD19RotRect,0.500000X0.110000X322.173913*%
%ADD20RotRect,0.500000X0.110000X323.739130*%
%ADD21RotRect,0.500000X0.110000X325.304348*%
%ADD22RotRect,0.500000X0.110000X326.869565*%
%ADD23RotRect,0.500000X0.110000X328.434783*%
%ADD24RotRect,0.500000X0.110000X330.000000*%
%ADD25RotRect,0.500000X0.110000X331.565217*%
%ADD26RotRect,0.500000X0.110000X333.130435*%
%ADD27RotRect,0.500000X0.110000X334.695652*%
%ADD28RotRect,0.500000X0.110000X336.260870*%
%ADD29RotRect,0.500000X0.110000X337.826087*%
%ADD30RotRect,0.500000X0.110000X339.391304*%
%ADD31RotRect,0.500000X0.110000X340.956522*%
%ADD32RotRect,0.500000X0.110000X342.521739*%
%ADD33RotRect,0.500000X0.110000X344.086957*%
%ADD34RotRect,0.500000X0.110000X345.652174*%
%ADD35RotRect,0.500000X0.110000X347.217391*%
%ADD36RotRect,0.500000X0.110000X348.782609*%
%ADD37RotRect,0.500000X0.110000X350.347826*%
%ADD38RotRect,0.500000X0.110000X351.913043*%
%ADD39RotRect,0.500000X0.110000X353.478261*%
%ADD40RotRect,0.500000X0.110000X355.043478*%
%ADD41RotRect,0.500000X0.110000X356.608696*%
%ADD42RotRect,0.500000X0.110000X358.173913*%
%ADD43RotRect,0.500000X0.110000X359.739130*%
%ADD44RotRect,0.500000X0.110000X1.304348*%
%ADD45RotRect,0.500000X0.110000X2.869565*%
%ADD46RotRect,0.500000X0.110000X4.434783*%
%ADD47RotRect,0.500000X0.110000X6.000000*%
%ADD48RotRect,0.500000X0.110000X7.565217*%
%ADD49RotRect,0.500000X0.110000X9.130435*%
%ADD50RotRect,0.500000X0.110000X10.695652*%
%ADD51RotRect,0.500000X0.110000X12.260870*%
%ADD52RotRect,0.500000X0.110000X13.826087*%
%ADD53RotRect,0.500000X0.110000X15.391304*%
%ADD54RotRect,0.500000X0.110000X16.956522*%
%ADD55RotRect,0.500000X0.110000X18.521739*%
%ADD56RotRect,0.500000X0.110000X20.086957*%
%ADD57RotRect,0.500000X0.110000X21.652174*%
%ADD58RotRect,0.500000X0.110000X23.217391*%
%ADD59RotRect,0.500000X0.110000X24.782609*%
%ADD60RotRect,0.500000X0.110000X26.347826*%
%ADD61RotRect,0.500000X0.110000X27.913043*%
%ADD62RotRect,0.500000X0.110000X29.478261*%
%ADD63RotRect,0.500000X0.110000X31.043478*%
%ADD64RotRect,0.500000X0.110000X32.608696*%
%ADD65RotRect,0.500000X0.110000X34.173913*%
%ADD66RotRect,0.500000X0.110000X35.739130*%
%ADD67RotRect,0.500000X0.110000X67.406053*%
%ADD68RotRect,0.500000X0.110000X69.297453*%
%ADD69RotRect,0.500000X0.110000X73.222666*%
%ADD70RotRect,0.500000X0.110000X75.250450*%
%ADD71RotRect,0.500000X0.110000X81.546581*%
%ADD72RotRect,0.500000X0.110000X85.871161*%
%ADD73RotRect,0.500000X0.110000X270.243293*%
%ADD74RotRect,0.500000X0.110000X272.431481*%
%ADD75RotRect,0.500000X0.110000X274.612599*%
%ADD76RotRect,0.500000X0.110000X276.780407*%
%ADD77RotRect,0.500000X0.110000X278.928894*%
%ADD78RotRect,0.500000X0.110000X281.052372*%
%ADD79RotRect,0.500000X0.110000X285.203640*%
%ADD80RotRect,0.500000X0.110000X289.197879*%
%ADD81RotRect,0.500000X0.110000X293.007458*%
%ADD82RotRect,0.500000X0.110000X294.836824*%
%ADD83RotRect,0.500000X0.110000X324.260870*%
%ADD84RotRect,0.500000X0.110000X325.826087*%
%ADD85RotRect,0.500000X0.110000X328.956522*%
%ADD86RotRect,0.500000X0.110000X330.521739*%
%ADD87RotRect,0.500000X0.110000X332.086957*%
%ADD88RotRect,0.500000X0.110000X333.652174*%
%ADD89RotRect,0.500000X0.110000X335.217391*%
%ADD90RotRect,0.500000X0.110000X336.782609*%
%ADD91RotRect,0.500000X0.110000X339.913043*%
%ADD92RotRect,0.500000X0.110000X341.478261*%
%ADD93RotRect,0.500000X0.110000X343.043478*%
%ADD94RotRect,0.500000X0.110000X344.608696*%
%ADD95RotRect,0.500000X0.110000X346.173913*%
%ADD96RotRect,0.500000X0.110000X347.739130*%
%ADD97RotRect,0.500000X0.110000X349.304348*%
%ADD98RotRect,0.500000X0.110000X350.869565*%
%ADD99RotRect,0.500000X0.110000X352.434783*%
%ADD100RotRect,0.500000X0.110000X354.000000*%
%ADD101RotRect,0.500000X0.110000X355.565217*%
%ADD102RotRect,0.500000X0.110000X357.130435*%
%ADD103RotRect,0.500000X0.110000X358.695652*%
%ADD104RotRect,0.500000X0.110000X0.260870*%
%ADD105RotRect,0.500000X0.110000X1.826087*%
%ADD106RotRect,0.500000X0.110000X3.391304*%
%ADD107RotRect,0.500000X0.110000X4.956522*%
%ADD108RotRect,0.500000X0.110000X6.521739*%
%ADD109RotRect,0.500000X0.110000X8.086957*%
%ADD110RotRect,0.500000X0.110000X9.652174*%
%ADD111RotRect,0.500000X0.110000X11.217391*%
%ADD112RotRect,0.500000X0.110000X12.782609*%
%ADD113RotRect,0.500000X0.110000X14.347826*%
%ADD114RotRect,0.500000X0.110000X15.913043*%
%ADD115RotRect,0.500000X0.110000X19.043478*%
%ADD116RotRect,0.500000X0.110000X20.608696*%
%ADD117RotRect,0.500000X0.110000X23.739130*%
%ADD118RotRect,0.500000X0.110000X25.304348*%
%ADD119RotRect,0.500000X0.110000X28.434783*%
%ADD120RotRect,0.500000X0.110000X31.565217*%
%ADD121RotRect,0.500000X0.110000X34.695652*%
%ADD122RotRect,0.500000X0.110000X36.260870*%
%ADD123RotRect,0.500000X0.110000X63.386311*%
%ADD124RotRect,0.500000X0.110000X66.992542*%
%ADD125RotRect,0.500000X0.110000X70.802121*%
%ADD126RotRect,0.500000X0.110000X74.796360*%
%ADD127RotRect,0.500000X0.110000X76.854442*%
%ADD128RotRect,0.500000X0.110000X78.947628*%
%ADD129RotRect,0.500000X0.110000X81.071106*%
%ADD130RotRect,0.500000X0.110000X83.219593*%
%ADD131RotRect,0.500000X0.110000X87.568519*%
%ADD132RotRect,0.500000X0.110000X271.945605*%
%ADD133RotRect,0.500000X0.110000X276.300134*%
%ADD134RotRect,0.500000X0.110000X278.453419*%
%ADD135RotRect,0.500000X0.110000X280.582927*%
%ADD136RotRect,0.500000X0.110000X282.683278*%
%ADD137RotRect,0.500000X0.110000X284.749550*%
%ADD138RotRect,0.500000X0.110000X286.777334*%
%ADD139RotRect,0.500000X0.110000X288.762766*%
%ADD140RotRect,0.500000X0.110000X290.702547*%
%ADD141RotRect,0.500000X0.110000X292.593947*%
%ADD142RotRect,0.500000X0.110000X294.434789*%
%ADD143RoundRect,0.225000X0.225000X0.250000X-0.225000X0.250000X-0.225000X-0.250000X0.225000X-0.250000X0*%
%ADD144RoundRect,0.225000X0.250000X-0.225000X0.250000X0.225000X-0.250000X0.225000X-0.250000X-0.225000X0*%
%ADD145RoundRect,0.112500X0.112500X0.637500X-0.112500X0.637500X-0.112500X-0.637500X0.112500X-0.637500X0*%
%ADD146RoundRect,0.225000X-0.225000X-0.250000X0.225000X-0.250000X0.225000X0.250000X-0.225000X0.250000X0*%
%ADD147R,0.650000X1.528000*%
%ADD148RoundRect,0.237500X-0.287500X-0.237500X0.287500X-0.237500X0.287500X0.237500X-0.287500X0.237500X0*%
%ADD149RoundRect,0.225000X-0.250000X0.225000X-0.250000X-0.225000X0.250000X-0.225000X0.250000X0.225000X0*%
%ADD150RoundRect,0.250000X-0.350000X-0.450000X0.350000X-0.450000X0.350000X0.450000X-0.350000X0.450000X0*%
%ADD151RoundRect,0.150000X-0.150000X0.825000X-0.150000X-0.825000X0.150000X-0.825000X0.150000X0.825000X0*%
%ADD152RoundRect,0.250000X0.450000X-0.350000X0.450000X0.350000X-0.450000X0.350000X-0.450000X-0.350000X0*%
%ADD153RoundRect,0.150000X0.150000X-0.825000X0.150000X0.825000X-0.150000X0.825000X-0.150000X-0.825000X0*%
%ADD154RoundRect,0.150000X-0.512500X-0.150000X0.512500X-0.150000X0.512500X0.150000X-0.512500X0.150000X0*%
%ADD155RoundRect,0.150000X-0.825000X-0.150000X0.825000X-0.150000X0.825000X0.150000X-0.825000X0.150000X0*%
%ADD156RoundRect,0.237500X0.250000X0.237500X-0.250000X0.237500X-0.250000X-0.237500X0.250000X-0.237500X0*%
%ADD157RoundRect,0.250000X-0.450000X0.350000X-0.450000X-0.350000X0.450000X-0.350000X0.450000X0.350000X0*%
G04 APERTURE END LIST*
D10*
%TO.C,U5*%
X153710000Y-50490000D03*
X153710000Y-50990000D03*
X153710000Y-51490000D03*
X153710000Y-51990000D03*
D11*
X154460000Y-52740000D03*
X154960000Y-52740000D03*
X155460000Y-52740000D03*
X155960000Y-52740000D03*
D10*
X156710000Y-51990000D03*
X156710000Y-51490000D03*
X156710000Y-50990000D03*
X156710000Y-50490000D03*
D11*
X155960000Y-49740000D03*
X155460000Y-49740000D03*
X154960000Y-49740000D03*
X154460000Y-49740000D03*
D12*
X155210000Y-51240000D03*
%TD*%
D13*
%TO.C,R30*%
X175450915Y-98494285D03*
X177100915Y-98494285D03*
%TD*%
%TO.C,R61*%
X181295000Y-140100000D03*
X182945000Y-140100000D03*
%TD*%
D14*
%TO.C,R63*%
X183025000Y-127440000D03*
X181375000Y-127440000D03*
%TD*%
D15*
%TO.C,U8*%
X194595000Y-91540000D03*
X194595000Y-90270000D03*
X194595000Y-89000000D03*
X194595000Y-87730000D03*
X194595000Y-86460000D03*
X194595000Y-85190000D03*
X194595000Y-83920000D03*
X189645000Y-83920000D03*
X189645000Y-85190000D03*
X189645000Y-86460000D03*
X189645000Y-87730000D03*
X189645000Y-89000000D03*
X189645000Y-90270000D03*
X189645000Y-91540000D03*
%TD*%
D16*
%TO.C,R18*%
X145679654Y-64612858D03*
X143679654Y-64612858D03*
%TD*%
D17*
%TO.C,R33*%
X85480000Y-51170000D03*
X85480000Y-52820000D03*
%TD*%
D18*
%TO.C,R12*%
X119944654Y-90217855D03*
X119944654Y-88567855D03*
%TD*%
D13*
%TO.C,R51*%
X77260000Y-64524999D03*
X78910000Y-64524999D03*
%TD*%
D18*
%TO.C,R58*%
X115000000Y-35740000D03*
X115000000Y-34090000D03*
%TD*%
D19*
%TO.C,U1*%
X136305232Y-75842694D03*
D20*
X136209784Y-76059158D03*
D21*
X136117826Y-76278182D03*
D22*
X136029427Y-76499669D03*
D23*
X135944652Y-76723522D03*
D24*
X135863565Y-76949641D03*
D25*
X135786226Y-77177924D03*
D26*
X135712693Y-77408268D03*
D27*
X135643021Y-77640567D03*
D28*
X135577262Y-77874717D03*
D29*
X135515465Y-78110610D03*
D30*
X135457676Y-78348135D03*
D31*
X135403939Y-78587185D03*
D32*
X135354292Y-78827646D03*
D33*
X135308774Y-79069408D03*
D34*
X135267419Y-79312356D03*
D35*
X135230256Y-79556377D03*
D36*
X135197314Y-79801355D03*
D37*
X135168618Y-80047175D03*
D38*
X135144189Y-80293721D03*
D39*
X135124045Y-80540876D03*
D40*
X135108201Y-80788522D03*
D41*
X135096669Y-81036543D03*
D42*
X135089457Y-81284819D03*
D43*
X135086572Y-81533234D03*
D44*
X135088015Y-81781668D03*
D45*
X135093785Y-82030003D03*
D46*
X135103877Y-82278122D03*
D47*
X135118285Y-82525906D03*
D48*
X135136997Y-82773238D03*
D49*
X135160000Y-83020000D03*
D50*
X135187276Y-83266075D03*
D51*
X135218805Y-83511347D03*
D52*
X135254564Y-83755699D03*
D53*
X135294525Y-83999018D03*
D54*
X135338659Y-84241187D03*
D55*
X135386933Y-84482095D03*
D56*
X135439312Y-84721627D03*
D57*
X135495755Y-84959673D03*
D58*
X135556221Y-85196122D03*
D59*
X135620664Y-85430865D03*
D60*
X135689038Y-85663793D03*
D61*
X135761289Y-85894801D03*
D62*
X135837366Y-86123782D03*
D63*
X135917210Y-86350634D03*
D64*
X136000762Y-86575253D03*
D65*
X136087961Y-86797540D03*
D66*
X136178740Y-87017396D03*
D67*
X139048165Y-89284496D03*
D68*
X139316117Y-89355125D03*
D69*
X139872324Y-89482757D03*
D70*
X140159865Y-89538519D03*
D71*
X141053881Y-89666628D03*
D72*
X141668915Y-89714588D03*
D73*
X142291140Y-89729589D03*
D74*
X142602575Y-89724419D03*
D75*
X142912937Y-89710856D03*
D76*
X143221286Y-89689075D03*
D77*
X143526722Y-89659355D03*
D78*
X143828408Y-89622065D03*
D79*
X144417565Y-89526640D03*
D80*
X144983736Y-89407095D03*
D81*
X145523448Y-89268274D03*
D82*
X145782717Y-89193186D03*
D83*
X148334284Y-87017396D03*
D84*
X148425063Y-86797540D03*
D85*
X148595814Y-86350634D03*
D86*
X148675658Y-86123782D03*
D87*
X148751735Y-85894801D03*
D88*
X148823986Y-85663793D03*
D89*
X148892360Y-85430865D03*
D90*
X148956803Y-85196122D03*
D91*
X149073712Y-84721627D03*
D92*
X149126091Y-84482095D03*
D93*
X149174365Y-84241187D03*
D94*
X149218499Y-83999018D03*
D95*
X149258460Y-83755699D03*
D96*
X149294219Y-83511347D03*
D97*
X149325748Y-83266075D03*
D98*
X149353024Y-83020000D03*
D99*
X149376027Y-82773238D03*
D100*
X149394739Y-82525906D03*
D101*
X149409147Y-82278122D03*
D102*
X149419239Y-82030003D03*
D103*
X149425009Y-81781668D03*
D104*
X149426452Y-81533234D03*
D105*
X149423567Y-81284819D03*
D106*
X149416355Y-81036543D03*
D107*
X149404823Y-80788522D03*
D108*
X149388979Y-80540876D03*
D109*
X149368835Y-80293721D03*
D110*
X149344406Y-80047175D03*
D111*
X149315710Y-79801355D03*
D112*
X149282768Y-79556377D03*
D113*
X149245605Y-79312356D03*
D114*
X149204250Y-79069408D03*
D115*
X149109085Y-78587185D03*
D116*
X149055348Y-78348135D03*
D117*
X148935762Y-77874717D03*
D118*
X148870003Y-77640567D03*
D119*
X148726798Y-77177924D03*
D120*
X148568372Y-76723522D03*
D121*
X148395198Y-76278182D03*
D122*
X148303240Y-76059158D03*
D123*
X146034754Y-74034167D03*
D124*
X145523448Y-73881008D03*
D125*
X144983736Y-73742187D03*
D126*
X144417565Y-73622642D03*
D127*
X144125581Y-73571627D03*
D128*
X143828408Y-73527217D03*
D129*
X143526722Y-73489927D03*
D130*
X143221286Y-73460207D03*
D131*
X142602575Y-73424863D03*
D132*
X141979598Y-73422985D03*
D133*
X141360040Y-73454669D03*
D134*
X141053881Y-73482654D03*
D135*
X140751293Y-73518298D03*
D136*
X140453055Y-73561169D03*
D137*
X140159865Y-73610763D03*
D138*
X139872324Y-73666525D03*
D139*
X139590939Y-73727862D03*
D140*
X139316117Y-73794157D03*
D141*
X139048165Y-73864786D03*
D142*
X138787300Y-73939132D03*
%TD*%
D13*
%TO.C,R29*%
X175445915Y-101448570D03*
X177095915Y-101448570D03*
%TD*%
D18*
%TO.C,R2*%
X119944654Y-68450000D03*
X119944654Y-66800000D03*
%TD*%
D143*
%TO.C,C22*%
X85165000Y-28490000D03*
X83615000Y-28490000D03*
%TD*%
D14*
%TO.C,R44*%
X69105000Y-43760000D03*
X67455000Y-43760000D03*
%TD*%
D13*
%TO.C,R31*%
X175410915Y-95540000D03*
X177060915Y-95540000D03*
%TD*%
D144*
%TO.C,C28*%
X184220000Y-147035000D03*
X184220000Y-145485000D03*
%TD*%
D145*
%TO.C,Q4*%
X95212500Y-144850000D03*
X93912500Y-144850000D03*
X94562500Y-147510000D03*
%TD*%
D13*
%TO.C,R41*%
X82037500Y-32640000D03*
X83687500Y-32640000D03*
%TD*%
%TO.C,R64*%
X172961835Y-58645000D03*
X174611835Y-58645000D03*
%TD*%
D18*
%TO.C,R6*%
X119944654Y-77157142D03*
X119944654Y-75507142D03*
%TD*%
%TO.C,R62*%
X181370000Y-147125000D03*
X181370000Y-145475000D03*
%TD*%
D146*
%TO.C,C26*%
X158540000Y-46920000D03*
X160090000Y-46920000D03*
%TD*%
D18*
%TO.C,R7*%
X116569654Y-79250000D03*
X116569654Y-77600000D03*
%TD*%
D13*
%TO.C,R25*%
X175490915Y-110311425D03*
X177140915Y-110311425D03*
%TD*%
D147*
%TO.C,U4*%
X182644165Y-31171000D03*
X183914165Y-31171000D03*
X185184165Y-31171000D03*
X186454165Y-31171000D03*
X186454165Y-25749000D03*
X185184165Y-25749000D03*
X183914165Y-25749000D03*
X182644165Y-25749000D03*
%TD*%
D148*
%TO.C,D5*%
X81475000Y-23780000D03*
X83225000Y-23780000D03*
%TD*%
D149*
%TO.C,C18*%
X71642500Y-28530000D03*
X71642500Y-30080000D03*
%TD*%
D18*
%TO.C,R9*%
X116569654Y-83607142D03*
X116569654Y-81957142D03*
%TD*%
D13*
%TO.C,R67*%
X192395835Y-58695000D03*
X194045835Y-58695000D03*
%TD*%
D150*
%TO.C,R50*%
X137980000Y-130375000D03*
X139980000Y-130375000D03*
%TD*%
D18*
%TO.C,R10*%
X119944654Y-85864284D03*
X119944654Y-84214284D03*
%TD*%
D17*
%TO.C,R49*%
X159270000Y-138280000D03*
X159270000Y-139930000D03*
%TD*%
D151*
%TO.C,U9*%
X140980000Y-34879999D03*
X139710000Y-34879999D03*
X138440000Y-34879999D03*
X137170000Y-34879999D03*
X135900000Y-34879999D03*
X134630000Y-34879999D03*
X133360000Y-34879999D03*
X133360000Y-39829999D03*
X134630000Y-39829999D03*
X135900000Y-39829999D03*
X137170000Y-39829999D03*
X138440000Y-39829999D03*
X139710000Y-39829999D03*
X140980000Y-39829999D03*
%TD*%
D152*
%TO.C,R32*%
X155809654Y-73462858D03*
X155809654Y-71462858D03*
%TD*%
D17*
%TO.C,R57*%
X159890000Y-31799999D03*
X159890000Y-33449999D03*
%TD*%
D14*
%TO.C,R54*%
X197675000Y-110450000D03*
X196025000Y-110450000D03*
%TD*%
D18*
%TO.C,R39*%
X79582500Y-32105000D03*
X79582500Y-30455000D03*
%TD*%
D13*
%TO.C,R22*%
X175435915Y-116220000D03*
X177085915Y-116220000D03*
%TD*%
D153*
%TO.C,U6*%
X133290000Y-139140000D03*
X134560000Y-139140000D03*
X135830000Y-139140000D03*
X137100000Y-139140000D03*
X138370000Y-139140000D03*
X139640000Y-139140000D03*
X140910000Y-139140000D03*
X140910000Y-134190000D03*
X139640000Y-134190000D03*
X138370000Y-134190000D03*
X137100000Y-134190000D03*
X135830000Y-134190000D03*
X134560000Y-134190000D03*
X133290000Y-134190000D03*
%TD*%
D143*
%TO.C,C23*%
X81977500Y-35990000D03*
X80427500Y-35990000D03*
%TD*%
D18*
%TO.C,R16*%
X119944654Y-98925000D03*
X119944654Y-97275000D03*
%TD*%
D148*
%TO.C,D1*%
X74952500Y-150037500D03*
X76702500Y-150037500D03*
%TD*%
D150*
%TO.C,R19*%
X139480000Y-63990000D03*
X141480000Y-63990000D03*
%TD*%
D148*
%TO.C,D3*%
X86652500Y-150027500D03*
X88402500Y-150027500D03*
%TD*%
D18*
%TO.C,R40*%
X82022500Y-43365000D03*
X82022500Y-41715000D03*
%TD*%
D143*
%TO.C,C29*%
X182920000Y-130690000D03*
X181370000Y-130690000D03*
%TD*%
D18*
%TO.C,R14*%
X119944654Y-94571426D03*
X119944654Y-92921426D03*
%TD*%
D13*
%TO.C,R34*%
X87620000Y-51310000D03*
X89270000Y-51310000D03*
%TD*%
D18*
%TO.C,R3*%
X116569654Y-70535716D03*
X116569654Y-68885716D03*
%TD*%
D143*
%TO.C,C19*%
X67977500Y-37890000D03*
X66427500Y-37890000D03*
%TD*%
D14*
%TO.C,R42*%
X75517500Y-43710000D03*
X73867500Y-43710000D03*
%TD*%
%TO.C,R47*%
X187174165Y-39080000D03*
X185524165Y-39080000D03*
%TD*%
D145*
%TO.C,Q2*%
X83602500Y-144960000D03*
X82302500Y-144960000D03*
X82952500Y-147620000D03*
%TD*%
D13*
%TO.C,R26*%
X175485915Y-107357140D03*
X177135915Y-107357140D03*
%TD*%
D16*
%TO.C,R21*%
X135920000Y-66330000D03*
X133920000Y-66330000D03*
%TD*%
D18*
%TO.C,R38*%
X96135000Y-151684333D03*
X96135000Y-150034333D03*
%TD*%
D13*
%TO.C,R46*%
X193274165Y-35960000D03*
X194924165Y-35960000D03*
%TD*%
%TO.C,R28*%
X175380915Y-104402855D03*
X177030915Y-104402855D03*
%TD*%
D18*
%TO.C,R11*%
X116569654Y-87964284D03*
X116569654Y-86314284D03*
%TD*%
D154*
%TO.C,U2*%
X74465000Y-28480000D03*
X74465000Y-29430000D03*
X74465000Y-30380000D03*
X76740000Y-30380000D03*
X76740000Y-28480000D03*
%TD*%
D146*
%TO.C,C25*%
X158115000Y-54880000D03*
X159665000Y-54880000D03*
%TD*%
D14*
%TO.C,R52*%
X81200001Y-109414999D03*
X79550001Y-109414999D03*
%TD*%
D18*
%TO.C,R8*%
X119944654Y-81510713D03*
X119944654Y-79860713D03*
%TD*%
D154*
%TO.C,U3*%
X74825000Y-35950000D03*
X74825000Y-36900000D03*
X74825000Y-37850000D03*
X77100000Y-37850000D03*
X77100000Y-35950000D03*
%TD*%
D18*
%TO.C,R48*%
X114380000Y-142220000D03*
X114380000Y-140570000D03*
%TD*%
D149*
%TO.C,C27*%
X185870000Y-143275000D03*
X185870000Y-144825000D03*
%TD*%
D143*
%TO.C,C20*%
X83625000Y-30360000D03*
X82075000Y-30360000D03*
%TD*%
D18*
%TO.C,R15*%
X116569654Y-96678574D03*
X116569654Y-95028574D03*
%TD*%
D148*
%TO.C,D4*%
X92330000Y-150017500D03*
X94080000Y-150017500D03*
%TD*%
D18*
%TO.C,R1*%
X116569654Y-66178574D03*
X116569654Y-64528574D03*
%TD*%
%TO.C,R35*%
X78925000Y-151684333D03*
X78925000Y-150034333D03*
%TD*%
D155*
%TO.C,U7*%
X80340000Y-83434999D03*
X80340000Y-84704999D03*
X80340000Y-85974999D03*
X80340000Y-87244999D03*
X80340000Y-88514999D03*
X80340000Y-89784999D03*
X80340000Y-91054999D03*
X85290000Y-91054999D03*
X85290000Y-89784999D03*
X85290000Y-88514999D03*
X85290000Y-87244999D03*
X85290000Y-85974999D03*
X85290000Y-84704999D03*
X85290000Y-83434999D03*
%TD*%
D14*
%TO.C,R23*%
X91085000Y-141930000D03*
X89435000Y-141930000D03*
%TD*%
D145*
%TO.C,Q3*%
X89510000Y-144910000D03*
X88210000Y-144910000D03*
X88860000Y-147570000D03*
%TD*%
D148*
%TO.C,D2*%
X80880000Y-150057500D03*
X82630000Y-150057500D03*
%TD*%
D13*
%TO.C,R65*%
X179308335Y-58705000D03*
X180958335Y-58705000D03*
%TD*%
D16*
%TO.C,R17*%
X138980000Y-96190000D03*
X136980000Y-96190000D03*
%TD*%
D152*
%TO.C,R56*%
X185830000Y-86850001D03*
X185830000Y-84850001D03*
%TD*%
D156*
%TO.C,FB1*%
X69545000Y-28520000D03*
X67720000Y-28520000D03*
%TD*%
D13*
%TO.C,R60*%
X181340000Y-143280000D03*
X182990000Y-143280000D03*
%TD*%
D146*
%TO.C,C11*%
X85460000Y-56500000D03*
X87010000Y-56500000D03*
%TD*%
D143*
%TO.C,C21*%
X81927500Y-39140000D03*
X80377500Y-39140000D03*
%TD*%
D18*
%TO.C,R43*%
X85860000Y-32645000D03*
X85860000Y-30995000D03*
%TD*%
D145*
%TO.C,Q1*%
X78700000Y-145150000D03*
X77400000Y-145150000D03*
X78050000Y-147810000D03*
%TD*%
D18*
%TO.C,R5*%
X116569654Y-74892858D03*
X116569654Y-73242858D03*
%TD*%
%TO.C,R4*%
X119944654Y-72803571D03*
X119944654Y-71153571D03*
%TD*%
D16*
%TO.C,R59*%
X136270000Y-43720000D03*
X134270000Y-43720000D03*
%TD*%
D14*
%TO.C,R27*%
X96880000Y-141880000D03*
X95230000Y-141880000D03*
%TD*%
D16*
%TO.C,R20*%
X143999654Y-94432858D03*
X141999654Y-94432858D03*
%TD*%
D13*
%TO.C,R55*%
X193734999Y-65560000D03*
X195384999Y-65560000D03*
%TD*%
D18*
%TO.C,R36*%
X84661668Y-151684333D03*
X84661668Y-150034333D03*
%TD*%
%TO.C,R13*%
X116569654Y-92321426D03*
X116569654Y-90671426D03*
%TD*%
%TO.C,R37*%
X90398334Y-151684333D03*
X90398334Y-150034333D03*
%TD*%
D13*
%TO.C,R66*%
X185970835Y-58755000D03*
X187620835Y-58755000D03*
%TD*%
D157*
%TO.C,R53*%
X89105000Y-88124998D03*
X89105000Y-90124998D03*
%TD*%
D13*
%TO.C,R24*%
X175345915Y-113265710D03*
X176995915Y-113265710D03*
%TD*%
D143*
%TO.C,C24*%
X190894165Y-35950000D03*
X189344165Y-35950000D03*
%TD*%
D13*
%TO.C,R45*%
X81620000Y-20310000D03*
X83270000Y-20310000D03*
%TD*%
M02*
