%TF.GenerationSoftware,KiCad,Pcbnew,8.0.4-8.0.4-0~ubuntu24.04.1*%
%TF.CreationDate,2024-08-21T06:51:10+07:00*%
%TF.ProjectId,qpix,71706978-2e6b-4696-9361-645f70636258,rev?*%
%TF.SameCoordinates,Original*%
%TF.FileFunction,Other,User*%
%FSLAX46Y46*%
G04 Gerber Fmt 4.6, Leading zero omitted, Abs format (unit mm)*
G04 Created by KiCad (PCBNEW 8.0.4-8.0.4-0~ubuntu24.04.1) date 2024-08-21 06:51:10*
%MOMM*%
%LPD*%
G01*
G04 APERTURE LIST*
%ADD10C,0.050000*%
G04 APERTURE END LIST*
D10*
%TO.C,C2*%
X132005000Y-78886000D02*
X134965000Y-78886000D01*
X132005000Y-80346000D02*
X132005000Y-78886000D01*
X134965000Y-78886000D02*
X134965000Y-80346000D01*
X134965000Y-80346000D02*
X132005000Y-80346000D01*
%TO.C,C14*%
X146655000Y-71556000D02*
X148115000Y-71556000D01*
X146655000Y-74516000D02*
X146655000Y-71556000D01*
X148115000Y-71556000D02*
X148115000Y-74516000D01*
X148115000Y-74516000D02*
X146655000Y-74516000D01*
%TO.C,C1*%
X131993000Y-74826000D02*
X134953000Y-74826000D01*
X131993000Y-76286000D02*
X131993000Y-74826000D01*
X134953000Y-74826000D02*
X134953000Y-76286000D01*
X134953000Y-76286000D02*
X131993000Y-76286000D01*
%TO.C,C15*%
X143495000Y-71456000D02*
X144955000Y-71456000D01*
X143495000Y-74416000D02*
X143495000Y-71456000D01*
X144955000Y-71456000D02*
X144955000Y-74416000D01*
X144955000Y-74416000D02*
X143495000Y-74416000D01*
%TO.C,C9*%
X148995000Y-85366000D02*
X151955000Y-85366000D01*
X148995000Y-86826000D02*
X148995000Y-85366000D01*
X151955000Y-85366000D02*
X151955000Y-86826000D01*
X151955000Y-86826000D02*
X148995000Y-86826000D01*
%TO.C,C16*%
X140225000Y-71506000D02*
X141685000Y-71506000D01*
X140225000Y-74466000D02*
X140225000Y-71506000D01*
X141685000Y-71506000D02*
X141685000Y-74466000D01*
X141685000Y-74466000D02*
X140225000Y-74466000D01*
%TO.C,C7*%
X143195000Y-87646000D02*
X144655000Y-87646000D01*
X143195000Y-90606000D02*
X143195000Y-87646000D01*
X144655000Y-87646000D02*
X144655000Y-90606000D01*
X144655000Y-90606000D02*
X143195000Y-90606000D01*
%TO.C,R71*%
X150880000Y-111137000D02*
X152340000Y-111137000D01*
X150880000Y-114097000D02*
X150880000Y-111137000D01*
X152340000Y-111137000D02*
X152340000Y-114097000D01*
X152340000Y-114097000D02*
X150880000Y-114097000D01*
%TO.C,R69*%
X158080000Y-111148000D02*
X159540000Y-111148000D01*
X158080000Y-114108000D02*
X158080000Y-111148000D01*
X159540000Y-111148000D02*
X159540000Y-114108000D01*
X159540000Y-114108000D02*
X158080000Y-114108000D01*
%TO.C,C5*%
X131943000Y-85476000D02*
X134903000Y-85476000D01*
X131943000Y-86936000D02*
X131943000Y-85476000D01*
X134903000Y-85476000D02*
X134903000Y-86936000D01*
X134903000Y-86936000D02*
X131943000Y-86936000D01*
%TO.C,R68*%
X169040000Y-120170000D02*
X172000000Y-120170000D01*
X169040000Y-121630000D02*
X169040000Y-120170000D01*
X172000000Y-120170000D02*
X172000000Y-121630000D01*
X172000000Y-121630000D02*
X169040000Y-121630000D01*
%TO.C,C10*%
X148868000Y-81937000D02*
X151828000Y-81937000D01*
X148868000Y-83397000D02*
X148868000Y-81937000D01*
X151828000Y-81937000D02*
X151828000Y-83397000D01*
X151828000Y-83397000D02*
X148868000Y-83397000D01*
%TO.C,C4*%
X137265000Y-71276000D02*
X138725000Y-71276000D01*
X137265000Y-74236000D02*
X137265000Y-71276000D01*
X138725000Y-71276000D02*
X138725000Y-74236000D01*
X138725000Y-74236000D02*
X137265000Y-74236000D01*
%TO.C,C6*%
X136585000Y-87556000D02*
X138045000Y-87556000D01*
X136585000Y-90516000D02*
X136585000Y-87556000D01*
X138045000Y-87556000D02*
X138045000Y-90516000D01*
X138045000Y-90516000D02*
X136585000Y-90516000D01*
%TO.C,C17*%
X146605000Y-87646000D02*
X148065000Y-87646000D01*
X146605000Y-90606000D02*
X146605000Y-87646000D01*
X148065000Y-87646000D02*
X148065000Y-90606000D01*
X148065000Y-90606000D02*
X146605000Y-90606000D01*
%TO.C,R70*%
X154390000Y-111158000D02*
X155850000Y-111158000D01*
X154390000Y-114118000D02*
X154390000Y-111158000D01*
X155850000Y-111158000D02*
X155850000Y-114118000D01*
X155850000Y-114118000D02*
X154390000Y-114118000D01*
%TO.C,C3*%
X131973000Y-82086000D02*
X134933000Y-82086000D01*
X131973000Y-83546000D02*
X131973000Y-82086000D01*
X134933000Y-82086000D02*
X134933000Y-83546000D01*
X134933000Y-83546000D02*
X131973000Y-83546000D01*
%TO.C,C13*%
X148895000Y-75506000D02*
X151855000Y-75506000D01*
X148895000Y-76966000D02*
X148895000Y-75506000D01*
X151855000Y-75506000D02*
X151855000Y-76966000D01*
X151855000Y-76966000D02*
X148895000Y-76966000D01*
%TO.C,C12*%
X148840000Y-79093000D02*
X151800000Y-79093000D01*
X148840000Y-80553000D02*
X148840000Y-79093000D01*
X151800000Y-79093000D02*
X151800000Y-80553000D01*
X151800000Y-80553000D02*
X148840000Y-80553000D01*
%TO.C,C8*%
X139905000Y-87346000D02*
X141365000Y-87346000D01*
X139905000Y-90306000D02*
X139905000Y-87346000D01*
X141365000Y-87346000D02*
X141365000Y-90306000D01*
X141365000Y-90306000D02*
X139905000Y-90306000D01*
%TD*%
M02*
