%TF.GenerationSoftware,KiCad,Pcbnew,7.0.6-7.0.6~ubuntu20.04.1*%
%TF.CreationDate,2023-11-11T07:42:01+07:00*%
%TF.ProjectId,qpix,71706978-2e6b-4696-9361-645f70636258,rev?*%
%TF.SameCoordinates,Original*%
%TF.FileFunction,Other,User*%
%FSLAX46Y46*%
G04 Gerber Fmt 4.6, Leading zero omitted, Abs format (unit mm)*
G04 Created by KiCad (PCBNEW 7.0.6-7.0.6~ubuntu20.04.1) date 2023-11-11 07:42:01*
%MOMM*%
%LPD*%
G01*
G04 APERTURE LIST*
%ADD10C,0.050000*%
G04 APERTURE END LIST*
D10*
%TO.C,R44*%
X157765000Y-103312000D02*
X160725000Y-103312000D01*
X157765000Y-104772000D02*
X157765000Y-103312000D01*
X160725000Y-103312000D02*
X160725000Y-104772000D01*
X160725000Y-104772000D02*
X157765000Y-104772000D01*
%TO.C,R14*%
X147800000Y-128530000D02*
X150760000Y-128530000D01*
X147800000Y-129990000D02*
X147800000Y-128530000D01*
X150760000Y-128530000D02*
X150760000Y-129990000D01*
X150760000Y-129990000D02*
X147800000Y-129990000D01*
%TO.C,R26*%
X117715000Y-114979997D02*
X117715000Y-112019997D01*
X119175000Y-114979997D02*
X117715000Y-114979997D01*
X117715000Y-112019997D02*
X119175000Y-112019997D01*
X119175000Y-112019997D02*
X119175000Y-114979997D01*
%TO.C,JP3*%
X148095835Y-74350000D02*
X148095835Y-80500000D01*
X148095835Y-80500000D02*
X151695835Y-80500000D01*
X151695835Y-74350000D02*
X148095835Y-74350000D01*
X151695835Y-80500000D02*
X151695835Y-74350000D01*
%TO.C,JP5*%
X161095835Y-74550000D02*
X161095835Y-80700000D01*
X161095835Y-80700000D02*
X164695835Y-80700000D01*
X164695835Y-74550000D02*
X161095835Y-74550000D01*
X164695835Y-80700000D02*
X164695835Y-74550000D01*
%TO.C,J2*%
X167320000Y-126920000D02*
X167320000Y-103020000D01*
X167320000Y-103020000D02*
X163720000Y-103020000D01*
X163720000Y-126920000D02*
X167320000Y-126920000D01*
X163720000Y-103020000D02*
X163720000Y-126920000D01*
%TO.C,J9*%
X173985000Y-140155000D02*
X173985000Y-131815000D01*
X173985000Y-140155000D02*
X165645000Y-140155000D01*
X165645000Y-131815000D02*
X173985000Y-131815000D01*
X165645000Y-131815000D02*
X165645000Y-140155000D01*
%TO.C,U1*%
X132716512Y-96694641D02*
X132716512Y-114674641D01*
X132716512Y-114674641D02*
X148716512Y-114674641D01*
X148716512Y-96684641D02*
X132716512Y-96694641D01*
X148716512Y-114674641D02*
X148716512Y-96684641D01*
%TO.C,R43*%
X154763000Y-104963000D02*
X157723000Y-104963000D01*
X154763000Y-106423000D02*
X154763000Y-104963000D01*
X157723000Y-104963000D02*
X157723000Y-106423000D01*
X157723000Y-106423000D02*
X154763000Y-106423000D01*
%TO.C,R16*%
X117715000Y-93212142D02*
X117715000Y-90252142D01*
X119175000Y-93212142D02*
X117715000Y-93212142D01*
X117715000Y-90252142D02*
X119175000Y-90252142D01*
X119175000Y-90252142D02*
X119175000Y-93212142D01*
%TO.C,C3*%
X115830000Y-61080000D02*
X112870000Y-61080000D01*
X115830000Y-59620000D02*
X115830000Y-61080000D01*
X112870000Y-61080000D02*
X112870000Y-59620000D01*
X112870000Y-59620000D02*
X115830000Y-59620000D01*
%TO.C,JP9*%
X119390000Y-140405000D02*
X119390000Y-134255000D01*
X119390000Y-134255000D02*
X115790000Y-134255000D01*
X115790000Y-140405000D02*
X119390000Y-140405000D01*
X115790000Y-134255000D02*
X115790000Y-140405000D01*
%TO.C,R33*%
X142930000Y-118230000D02*
X139970000Y-118230000D01*
X142930000Y-116770000D02*
X142930000Y-118230000D01*
X139970000Y-118230000D02*
X139970000Y-116770000D01*
X139970000Y-116770000D02*
X142930000Y-116770000D01*
%TO.C,R45*%
X154763000Y-101693892D02*
X157723000Y-101693892D01*
X154763000Y-103153892D02*
X154763000Y-101693892D01*
X157723000Y-101693892D02*
X157723000Y-103153892D01*
X157723000Y-103153892D02*
X154763000Y-103153892D01*
%TO.C,C23*%
X151430000Y-133490000D02*
X151430000Y-130530000D01*
X152890000Y-133490000D02*
X151430000Y-133490000D01*
X151430000Y-130530000D02*
X152890000Y-130530000D01*
X152890000Y-130530000D02*
X152890000Y-133490000D01*
%TO.C,Q4*%
X168561833Y-105570000D02*
X171961833Y-105570000D01*
X168561833Y-108170000D02*
X168561833Y-105570000D01*
X171961833Y-105570000D02*
X171961833Y-108170000D01*
X171961833Y-108170000D02*
X168561833Y-108170000D01*
%TO.C,R8*%
X111342500Y-63770000D02*
X114302500Y-63770000D01*
X111342500Y-65230000D02*
X111342500Y-63770000D01*
X114302500Y-63770000D02*
X114302500Y-65230000D01*
X114302500Y-65230000D02*
X111342500Y-65230000D01*
%TO.C,R1*%
X147586835Y-82445000D02*
X150546835Y-82445000D01*
X147586835Y-83905000D02*
X147586835Y-82445000D01*
X150546835Y-82445000D02*
X150546835Y-83905000D01*
X150546835Y-83905000D02*
X147586835Y-83905000D01*
%TO.C,JP6*%
X167460835Y-74680000D02*
X167460835Y-80830000D01*
X167460835Y-80830000D02*
X171060835Y-80830000D01*
X171060835Y-74680000D02*
X167460835Y-74680000D01*
X171060835Y-80830000D02*
X171060835Y-74680000D01*
%TO.C,R20*%
X117715000Y-101919284D02*
X117715000Y-98959284D01*
X119175000Y-101919284D02*
X117715000Y-101919284D01*
X117715000Y-98959284D02*
X119175000Y-98959284D01*
X119175000Y-98959284D02*
X119175000Y-101919284D01*
%TO.C,R21*%
X114340000Y-104012142D02*
X114340000Y-101052142D01*
X115800000Y-104012142D02*
X114340000Y-104012142D01*
X114340000Y-101052142D02*
X115800000Y-101052142D01*
X115800000Y-101052142D02*
X115800000Y-104012142D01*
%TO.C,R39*%
X154763000Y-110805000D02*
X157723000Y-110805000D01*
X154763000Y-112265000D02*
X154763000Y-110805000D01*
X157723000Y-110805000D02*
X157723000Y-112265000D01*
X157723000Y-112265000D02*
X154763000Y-112265000D01*
%TO.C,R31*%
X134550000Y-117980000D02*
X137510000Y-117980000D01*
X134550000Y-119440000D02*
X134550000Y-117980000D01*
X137510000Y-117980000D02*
X137510000Y-119440000D01*
X137510000Y-119440000D02*
X134550000Y-119440000D01*
%TO.C,C1*%
X102332500Y-59685000D02*
X102332500Y-62645000D01*
X100872500Y-59685000D02*
X102332500Y-59685000D01*
X102332500Y-62645000D02*
X100872500Y-62645000D01*
X100872500Y-62645000D02*
X100872500Y-59685000D01*
%TO.C,JP12*%
X159930000Y-130270000D02*
X153780000Y-130270000D01*
X153780000Y-130270000D02*
X153780000Y-133870000D01*
X159930000Y-133870000D02*
X159930000Y-130270000D01*
X153780000Y-133870000D02*
X159930000Y-133870000D01*
%TO.C,R23*%
X114340000Y-108369284D02*
X114340000Y-105409284D01*
X115800000Y-108369284D02*
X114340000Y-108369284D01*
X114340000Y-105409284D02*
X115800000Y-105409284D01*
X115800000Y-105409284D02*
X115800000Y-108369284D01*
%TO.C,R4*%
X167020835Y-82495000D02*
X169980835Y-82495000D01*
X167020835Y-83955000D02*
X167020835Y-82495000D01*
X169980835Y-82495000D02*
X169980835Y-83955000D01*
X169980835Y-83955000D02*
X167020835Y-83955000D01*
%TO.C,R24*%
X117715000Y-110626426D02*
X117715000Y-107666426D01*
X119175000Y-110626426D02*
X117715000Y-110626426D01*
X117715000Y-107666426D02*
X119175000Y-107666426D01*
X119175000Y-107666426D02*
X119175000Y-110626426D01*
%TO.C,J4*%
X132375000Y-142145000D02*
X141025000Y-142145000D01*
X141025000Y-142145000D02*
X141025000Y-127295000D01*
X132375000Y-127295000D02*
X132375000Y-142145000D01*
X141025000Y-127295000D02*
X132375000Y-127295000D01*
%TO.C,J7*%
X168370000Y-51110000D02*
X168370000Y-59450000D01*
X168370000Y-51110000D02*
X176710000Y-51110000D01*
X176710000Y-59450000D02*
X168370000Y-59450000D01*
X176710000Y-59450000D02*
X176710000Y-51110000D01*
%TO.C,J5*%
X126730000Y-67000000D02*
X126730000Y-55800000D01*
X126730000Y-55800000D02*
X123130000Y-55800000D01*
X123130000Y-67000000D02*
X126730000Y-67000000D01*
X123130000Y-55800000D02*
X123130000Y-67000000D01*
%TO.C,R7*%
X108812500Y-64620000D02*
X108812500Y-61660000D01*
X110272500Y-64620000D02*
X108812500Y-64620000D01*
X108812500Y-61660000D02*
X110272500Y-61660000D01*
X110272500Y-61660000D02*
X110272500Y-64620000D01*
%TO.C,R36*%
X157765000Y-116012000D02*
X160725000Y-116012000D01*
X157765000Y-117472000D02*
X157765000Y-116012000D01*
X160725000Y-116012000D02*
X160725000Y-117472000D01*
X160725000Y-117472000D02*
X157765000Y-117472000D01*
%TO.C,R30*%
X117715000Y-123687142D02*
X117715000Y-120727142D01*
X119175000Y-123687142D02*
X117715000Y-123687142D01*
X117715000Y-120727142D02*
X119175000Y-120727142D01*
X119175000Y-120727142D02*
X119175000Y-123687142D01*
%TO.C,JP2*%
X160080000Y-136290000D02*
X153930000Y-136290000D01*
X153930000Y-136290000D02*
X153930000Y-139890000D01*
X160080000Y-139890000D02*
X160080000Y-136290000D01*
X153930000Y-139890000D02*
X160080000Y-139890000D01*
%TO.C,D1*%
X172851833Y-125425000D02*
X172851833Y-124025000D01*
X173551833Y-125425000D02*
X172851833Y-125425000D01*
X172851833Y-124025000D02*
X173551833Y-124025000D01*
X173551833Y-124025000D02*
X173551833Y-125425000D01*
%TO.C,J3*%
X141115000Y-49535000D02*
X132465000Y-49535000D01*
X132465000Y-49535000D02*
X132465000Y-64385000D01*
X141115000Y-64385000D02*
X141115000Y-49535000D01*
X132465000Y-64385000D02*
X141115000Y-64385000D01*
%TO.C,D3*%
X172851833Y-114040000D02*
X172851833Y-112640000D01*
X173551833Y-114040000D02*
X172851833Y-114040000D01*
X172851833Y-112640000D02*
X173551833Y-112640000D01*
X173551833Y-112640000D02*
X173551833Y-114040000D01*
%TO.C,JP7*%
X169656750Y-86880000D02*
X163506750Y-86880000D01*
X163506750Y-86880000D02*
X163506750Y-90480000D01*
X169656750Y-90480000D02*
X169656750Y-86880000D01*
X163506750Y-90480000D02*
X169656750Y-90480000D01*
%TO.C,R28*%
X117715000Y-119333568D02*
X117715000Y-116373568D01*
X119175000Y-119333568D02*
X117715000Y-119333568D01*
X117715000Y-116373568D02*
X119175000Y-116373568D01*
X119175000Y-116373568D02*
X119175000Y-119333568D01*
%TO.C,J13*%
X149400000Y-59720000D02*
X149400000Y-53570000D01*
X149400000Y-53570000D02*
X145800000Y-53570000D01*
X145800000Y-59720000D02*
X149400000Y-59720000D01*
X145800000Y-53570000D02*
X145800000Y-59720000D01*
%TO.C,R17*%
X114340000Y-95297858D02*
X114340000Y-92337858D01*
X115800000Y-95297858D02*
X114340000Y-95297858D01*
X114340000Y-92337858D02*
X115800000Y-92337858D01*
X115800000Y-92337858D02*
X115800000Y-95297858D01*
%TO.C,R13*%
X166030000Y-66400000D02*
X163070000Y-66400000D01*
X166030000Y-64940000D02*
X166030000Y-66400000D01*
X163070000Y-66400000D02*
X163070000Y-64940000D01*
X163070000Y-64940000D02*
X166030000Y-64940000D01*
%TO.C,JP10*%
X115750000Y-140404000D02*
X115750000Y-134254000D01*
X115750000Y-134254000D02*
X112150000Y-134254000D01*
X112150000Y-140404000D02*
X115750000Y-140404000D01*
X112150000Y-134254000D02*
X112150000Y-140404000D01*
%TO.C,R32*%
X144235000Y-92920000D02*
X141275000Y-92920000D01*
X144235000Y-91460000D02*
X144235000Y-92920000D01*
X141275000Y-92920000D02*
X141275000Y-91460000D01*
X141275000Y-91460000D02*
X144235000Y-91460000D01*
%TO.C,Q2*%
X168561833Y-117237332D02*
X171961833Y-117237332D01*
X168561833Y-119837332D02*
X168561833Y-117237332D01*
X171961833Y-117237332D02*
X171961833Y-119837332D01*
X171961833Y-119837332D02*
X168561833Y-119837332D01*
%TO.C,R40*%
X157829000Y-109408000D02*
X160789000Y-109408000D01*
X157829000Y-110868000D02*
X157829000Y-109408000D01*
X160789000Y-109408000D02*
X160789000Y-110868000D01*
X160789000Y-110868000D02*
X157829000Y-110868000D01*
%TO.C,J10*%
X157920000Y-59720000D02*
X157920000Y-53570000D01*
X157920000Y-53570000D02*
X154320000Y-53570000D01*
X154320000Y-59720000D02*
X157920000Y-59720000D01*
X154320000Y-53570000D02*
X154320000Y-59720000D01*
%TO.C,R68*%
X175561833Y-106060000D02*
X172601833Y-106060000D01*
X175561833Y-104600000D02*
X175561833Y-106060000D01*
X172601833Y-106060000D02*
X172601833Y-104600000D01*
X172601833Y-104600000D02*
X175561833Y-104600000D01*
%TO.C,R42*%
X157829000Y-106487000D02*
X160789000Y-106487000D01*
X157829000Y-107947000D02*
X157829000Y-106487000D01*
X160789000Y-106487000D02*
X160789000Y-107947000D01*
X160789000Y-107947000D02*
X157829000Y-107947000D01*
%TO.C,R25*%
X114340000Y-112726426D02*
X114340000Y-109766426D01*
X115800000Y-112726426D02*
X114340000Y-112726426D01*
X114340000Y-109766426D02*
X115800000Y-109766426D01*
X115800000Y-109766426D02*
X115800000Y-112726426D01*
%TO.C,U2*%
X103512500Y-59590000D02*
X103512500Y-62990000D01*
X103512500Y-62990000D02*
X107612500Y-62990000D01*
X107612500Y-59590000D02*
X103512500Y-59590000D01*
X107612500Y-62990000D02*
X107612500Y-59590000D01*
%TO.C,R22*%
X117715000Y-106272855D02*
X117715000Y-103312855D01*
X119175000Y-106272855D02*
X117715000Y-106272855D01*
X117715000Y-103312855D02*
X119175000Y-103312855D01*
X119175000Y-103312855D02*
X119175000Y-106272855D01*
%TO.C,J1*%
X96045000Y-81880000D02*
X96045000Y-133730000D01*
X96045000Y-133730000D02*
X102195000Y-133730000D01*
X102195000Y-81880000D02*
X96045000Y-81880000D01*
X102195000Y-133730000D02*
X102195000Y-81880000D01*
%TO.C,J8*%
X177785000Y-100315000D02*
X177785000Y-91665000D01*
X177785000Y-91665000D02*
X162935000Y-91665000D01*
X162935000Y-100315000D02*
X177785000Y-100315000D01*
X162935000Y-91665000D02*
X162935000Y-100315000D01*
%TO.C,JP4*%
X154430000Y-74350000D02*
X154430000Y-80500000D01*
X154430000Y-80500000D02*
X158030000Y-80500000D01*
X158030000Y-74350000D02*
X154430000Y-74350000D01*
X158030000Y-80500000D02*
X158030000Y-74350000D01*
%TO.C,C22*%
X151130000Y-139355000D02*
X151130000Y-136395000D01*
X152590000Y-139355000D02*
X151130000Y-139355000D01*
X151130000Y-136395000D02*
X152590000Y-136395000D01*
X152590000Y-136395000D02*
X152590000Y-139355000D01*
%TO.C,C2*%
X114290000Y-62950000D02*
X111330000Y-62950000D01*
X114290000Y-61490000D02*
X114290000Y-62950000D01*
X111330000Y-62950000D02*
X111330000Y-61490000D01*
X111330000Y-61490000D02*
X114290000Y-61490000D01*
%TO.C,R29*%
X114340000Y-121440716D02*
X114340000Y-118480716D01*
X115800000Y-121440716D02*
X114340000Y-121440716D01*
X114340000Y-118480716D02*
X115800000Y-118480716D01*
X115800000Y-118480716D02*
X115800000Y-121440716D01*
%TO.C,D4*%
X172851833Y-108067500D02*
X172851833Y-106667500D01*
X173551833Y-108067500D02*
X172851833Y-108067500D01*
X172851833Y-106667500D02*
X173551833Y-106667500D01*
X173551833Y-106667500D02*
X173551833Y-108067500D01*
%TO.C,R15*%
X114340000Y-90940716D02*
X114340000Y-87980716D01*
X115800000Y-90940716D02*
X114340000Y-90940716D01*
X114340000Y-87980716D02*
X115800000Y-87980716D01*
X115800000Y-87980716D02*
X115800000Y-90940716D01*
%TO.C,R65*%
X175561833Y-123270000D02*
X172601833Y-123270000D01*
X175561833Y-121810000D02*
X175561833Y-123270000D01*
X172601833Y-123270000D02*
X172601833Y-121810000D01*
X172601833Y-121810000D02*
X175561833Y-121810000D01*
%TO.C,J11*%
X96560000Y-51170000D02*
X96560000Y-56070000D01*
X96560000Y-56070000D02*
X101960000Y-56070000D01*
X101960000Y-51170000D02*
X96560000Y-51170000D01*
X101960000Y-56070000D02*
X101960000Y-51170000D01*
X104360000Y-51170000D02*
X104360000Y-56070000D01*
X104360000Y-56070000D02*
X109760000Y-56070000D01*
X109760000Y-51170000D02*
X104360000Y-51170000D01*
X109760000Y-56070000D02*
X109760000Y-51170000D01*
%TO.C,R37*%
X154590000Y-114107000D02*
X157550000Y-114107000D01*
X154590000Y-115567000D02*
X154590000Y-114107000D01*
X157550000Y-114107000D02*
X157550000Y-115567000D01*
X157550000Y-115567000D02*
X154590000Y-115567000D01*
%TO.C,Q3*%
X168561833Y-111403666D02*
X171961833Y-111403666D01*
X168561833Y-114003666D02*
X168561833Y-111403666D01*
X171961833Y-111403666D02*
X171961833Y-114003666D01*
X171961833Y-114003666D02*
X168561833Y-114003666D01*
%TO.C,D2*%
X172851833Y-119787500D02*
X172851833Y-118387500D01*
X173551833Y-119787500D02*
X172851833Y-119787500D01*
X172851833Y-118387500D02*
X173551833Y-118387500D01*
X173551833Y-118387500D02*
X173551833Y-119787500D01*
%TO.C,J6*%
X95435000Y-70765000D02*
X95435000Y-79415000D01*
X95435000Y-79415000D02*
X110285000Y-79415000D01*
X110285000Y-70765000D02*
X95435000Y-70765000D01*
X110285000Y-79415000D02*
X110285000Y-70765000D01*
%TO.C,R2*%
X153933335Y-82505000D02*
X156893335Y-82505000D01*
X153933335Y-83965000D02*
X153933335Y-82505000D01*
X156893335Y-82505000D02*
X156893335Y-83965000D01*
X156893335Y-83965000D02*
X153933335Y-83965000D01*
%TO.C,JP8*%
X123020000Y-140415000D02*
X123020000Y-134265000D01*
X123020000Y-134265000D02*
X119420000Y-134265000D01*
X119420000Y-140415000D02*
X123020000Y-140415000D01*
X119420000Y-134265000D02*
X119420000Y-140415000D01*
%TO.C,FB1*%
X100072500Y-61110000D02*
X97112500Y-61110000D01*
X100072500Y-59650000D02*
X100072500Y-61110000D01*
X97112500Y-61110000D02*
X97112500Y-59650000D01*
X97112500Y-59650000D02*
X100072500Y-59650000D01*
%TO.C,R10*%
X147710000Y-134400000D02*
X150670000Y-134400000D01*
X147710000Y-135860000D02*
X147710000Y-134400000D01*
X150670000Y-134400000D02*
X150670000Y-135860000D01*
X150670000Y-135860000D02*
X147710000Y-135860000D01*
%TO.C,R9*%
X115090000Y-65160000D02*
X115090000Y-62200000D01*
X116550000Y-65160000D02*
X115090000Y-65160000D01*
X115090000Y-62200000D02*
X116550000Y-62200000D01*
X116550000Y-62200000D02*
X116550000Y-65160000D01*
%TO.C,Q1*%
X168641833Y-123070999D02*
X172041833Y-123070999D01*
X168641833Y-125670999D02*
X168641833Y-123070999D01*
X172041833Y-123070999D02*
X172041833Y-125670999D01*
X172041833Y-125670999D02*
X168641833Y-125670999D01*
%TO.C,R19*%
X114340000Y-99655000D02*
X114340000Y-96695000D01*
X115800000Y-99655000D02*
X114340000Y-99655000D01*
X114340000Y-96695000D02*
X115800000Y-96695000D01*
X115800000Y-96695000D02*
X115800000Y-99655000D01*
%TO.C,R18*%
X117715000Y-97565713D02*
X117715000Y-94605713D01*
X119175000Y-97565713D02*
X117715000Y-97565713D01*
X117715000Y-94605713D02*
X119175000Y-94605713D01*
X119175000Y-94605713D02*
X119175000Y-97565713D01*
%TO.C,R41*%
X154763000Y-108011000D02*
X157723000Y-108011000D01*
X154763000Y-109471000D02*
X154763000Y-108011000D01*
X157723000Y-108011000D02*
X157723000Y-109471000D01*
X157723000Y-109471000D02*
X154763000Y-109471000D01*
%TO.C,JP1*%
X167625000Y-67480000D02*
X173775000Y-67480000D01*
X173775000Y-67480000D02*
X173775000Y-63880000D01*
X167625000Y-63880000D02*
X167625000Y-67480000D01*
X173775000Y-63880000D02*
X167625000Y-63880000D01*
%TO.C,R66*%
X175561833Y-117533332D02*
X172601833Y-117533332D01*
X175561833Y-116073332D02*
X175561833Y-117533332D01*
X172601833Y-117533332D02*
X172601833Y-116073332D01*
X172601833Y-116073332D02*
X175561833Y-116073332D01*
%TO.C,R27*%
X114340000Y-117083568D02*
X114340000Y-114123568D01*
X115800000Y-117083568D02*
X114340000Y-117083568D01*
X114340000Y-114123568D02*
X115800000Y-114123568D01*
X115800000Y-114123568D02*
X115800000Y-117083568D01*
%TO.C,R67*%
X175561833Y-111796666D02*
X172601833Y-111796666D01*
X175561833Y-110336666D02*
X175561833Y-111796666D01*
X172601833Y-111796666D02*
X172601833Y-110336666D01*
X172601833Y-110336666D02*
X175561833Y-110336666D01*
%TO.C,R3*%
X160595835Y-82555000D02*
X163555835Y-82555000D01*
X160595835Y-84015000D02*
X160595835Y-82555000D01*
X163555835Y-82555000D02*
X163555835Y-84015000D01*
X163555835Y-84015000D02*
X160595835Y-84015000D01*
%TO.C,R38*%
X157765000Y-112710000D02*
X160725000Y-112710000D01*
X157765000Y-114170000D02*
X157765000Y-112710000D01*
X160725000Y-112710000D02*
X160725000Y-114170000D01*
X160725000Y-114170000D02*
X157765000Y-114170000D01*
%TO.C,R35*%
X151750000Y-95470000D02*
X151750000Y-98430000D01*
X150290000Y-95470000D02*
X151750000Y-95470000D01*
X151750000Y-98430000D02*
X150290000Y-98430000D01*
X150290000Y-98430000D02*
X150290000Y-95470000D01*
%TD*%
M02*
