%TF.GenerationSoftware,KiCad,Pcbnew,7.0.6-7.0.6~ubuntu20.04.1*%
%TF.CreationDate,2023-11-11T07:42:01+07:00*%
%TF.ProjectId,qpix,71706978-2e6b-4696-9361-645f70636258,rev?*%
%TF.SameCoordinates,Original*%
%TF.FileFunction,Other,User*%
%FSLAX46Y46*%
G04 Gerber Fmt 4.6, Leading zero omitted, Abs format (unit mm)*
G04 Created by KiCad (PCBNEW 7.0.6-7.0.6~ubuntu20.04.1) date 2023-11-11 07:42:01*
%MOMM*%
%LPD*%
G01*
G04 APERTURE LIST*
%ADD10C,0.050000*%
G04 APERTURE END LIST*
D10*
%TO.C,C5*%
X132690000Y-105480000D02*
X132690000Y-104020000D01*
X132690000Y-104020000D02*
X129730000Y-104020000D01*
X129730000Y-105480000D02*
X132690000Y-105480000D01*
X129730000Y-104020000D02*
X129730000Y-105480000D01*
%TO.C,C16*%
X144380000Y-99650000D02*
X145840000Y-99650000D01*
X145840000Y-99650000D02*
X145840000Y-96690000D01*
X144380000Y-96690000D02*
X144380000Y-99650000D01*
X145840000Y-96690000D02*
X144380000Y-96690000D01*
%TO.C,C4*%
X132678000Y-101420000D02*
X132678000Y-99960000D01*
X132678000Y-99960000D02*
X129718000Y-99960000D01*
X129718000Y-101420000D02*
X132678000Y-101420000D01*
X129718000Y-99960000D02*
X129718000Y-101420000D01*
%TO.C,C17*%
X141220000Y-99550000D02*
X142680000Y-99550000D01*
X142680000Y-99550000D02*
X142680000Y-96590000D01*
X141220000Y-96590000D02*
X141220000Y-99550000D01*
X142680000Y-96590000D02*
X141220000Y-96590000D01*
%TO.C,C12*%
X146720000Y-110500000D02*
X146720000Y-111960000D01*
X146720000Y-111960000D02*
X149680000Y-111960000D01*
X149680000Y-110500000D02*
X146720000Y-110500000D01*
X149680000Y-111960000D02*
X149680000Y-110500000D01*
%TO.C,C18*%
X137950000Y-99600000D02*
X139410000Y-99600000D01*
X139410000Y-99600000D02*
X139410000Y-96640000D01*
X137950000Y-96640000D02*
X137950000Y-99600000D01*
X139410000Y-96640000D02*
X137950000Y-96640000D01*
%TO.C,C20*%
X132600000Y-91005000D02*
X131140000Y-91005000D01*
X131140000Y-91005000D02*
X131140000Y-93965000D01*
X132600000Y-93965000D02*
X132600000Y-91005000D01*
X131140000Y-93965000D02*
X132600000Y-93965000D01*
%TO.C,C10*%
X142380000Y-112780000D02*
X140920000Y-112780000D01*
X140920000Y-112780000D02*
X140920000Y-115740000D01*
X142380000Y-115740000D02*
X142380000Y-112780000D01*
X140920000Y-115740000D02*
X142380000Y-115740000D01*
%TO.C,U4*%
X165795000Y-59095000D02*
X165795000Y-54845000D01*
X165795000Y-54845000D02*
X161545000Y-54845000D01*
X161545000Y-59095000D02*
X165795000Y-59095000D01*
X161545000Y-54845000D02*
X161545000Y-59095000D01*
%TO.C,R12*%
X114700000Y-130947000D02*
X113240000Y-130947000D01*
X113240000Y-130947000D02*
X113240000Y-133907000D01*
X114700000Y-133907000D02*
X114700000Y-130947000D01*
X113240000Y-133907000D02*
X114700000Y-133907000D01*
%TO.C,R6*%
X121900000Y-130958000D02*
X120440000Y-130958000D01*
X120440000Y-130958000D02*
X120440000Y-133918000D01*
X121900000Y-133918000D02*
X121900000Y-130958000D01*
X120440000Y-133918000D02*
X121900000Y-133918000D01*
%TO.C,C8*%
X132628000Y-112070000D02*
X132628000Y-110610000D01*
X132628000Y-110610000D02*
X129668000Y-110610000D01*
X129668000Y-112070000D02*
X132628000Y-112070000D01*
X129668000Y-110610000D02*
X129668000Y-112070000D01*
%TO.C,U3*%
X134455000Y-90685000D02*
X134455000Y-86435000D01*
X134455000Y-86435000D02*
X130205000Y-86435000D01*
X130205000Y-90685000D02*
X134455000Y-90685000D01*
X130205000Y-86435000D02*
X130205000Y-90685000D01*
%TO.C,R5*%
X160558250Y-87830000D02*
X160558250Y-89290000D01*
X160558250Y-89290000D02*
X163518250Y-89290000D01*
X163518250Y-87830000D02*
X160558250Y-87830000D01*
X163518250Y-89290000D02*
X163518250Y-87830000D01*
%TO.C,R34*%
X163590000Y-53640000D02*
X163590000Y-52180000D01*
X163590000Y-52180000D02*
X160630000Y-52180000D01*
X160630000Y-53640000D02*
X163590000Y-53640000D01*
X160630000Y-52180000D02*
X160630000Y-53640000D01*
%TO.C,C19*%
X129300000Y-86140000D02*
X130760000Y-86140000D01*
X130760000Y-86140000D02*
X130760000Y-83180000D01*
X129300000Y-83180000D02*
X129300000Y-86140000D01*
X130760000Y-83180000D02*
X129300000Y-83180000D01*
%TO.C,C13*%
X146593000Y-107071000D02*
X146593000Y-108531000D01*
X146593000Y-108531000D02*
X149553000Y-108531000D01*
X149553000Y-107071000D02*
X146593000Y-107071000D01*
X149553000Y-108531000D02*
X149553000Y-107071000D01*
%TO.C,C7*%
X134990000Y-99370000D02*
X136450000Y-99370000D01*
X136450000Y-99370000D02*
X136450000Y-96410000D01*
X134990000Y-96410000D02*
X134990000Y-99370000D01*
X136450000Y-96410000D02*
X134990000Y-96410000D01*
%TO.C,C9*%
X135770000Y-112690000D02*
X134310000Y-112690000D01*
X134310000Y-112690000D02*
X134310000Y-115650000D01*
X135770000Y-115650000D02*
X135770000Y-112690000D01*
X134310000Y-115650000D02*
X135770000Y-115650000D01*
%TO.C,C24*%
X145790000Y-112780000D02*
X144330000Y-112780000D01*
X144330000Y-112780000D02*
X144330000Y-115740000D01*
X145790000Y-115740000D02*
X145790000Y-112780000D01*
X144330000Y-115740000D02*
X145790000Y-115740000D01*
%TO.C,R11*%
X118210000Y-130968000D02*
X116750000Y-130968000D01*
X116750000Y-130968000D02*
X116750000Y-133928000D01*
X118210000Y-133928000D02*
X118210000Y-130968000D01*
X116750000Y-133928000D02*
X118210000Y-133928000D01*
%TO.C,C6*%
X132658000Y-108680000D02*
X132658000Y-107220000D01*
X132658000Y-107220000D02*
X129698000Y-107220000D01*
X129698000Y-108680000D02*
X132658000Y-108680000D01*
X129698000Y-107220000D02*
X129698000Y-108680000D01*
%TO.C,C15*%
X146620000Y-100640000D02*
X146620000Y-102100000D01*
X146620000Y-102100000D02*
X149580000Y-102100000D01*
X149580000Y-100640000D02*
X146620000Y-100640000D01*
X149580000Y-102100000D02*
X149580000Y-100640000D01*
%TO.C,C14*%
X146565000Y-104227000D02*
X146565000Y-105687000D01*
X146565000Y-105687000D02*
X149525000Y-105687000D01*
X149525000Y-104227000D02*
X146565000Y-104227000D01*
X149525000Y-105687000D02*
X149525000Y-104227000D01*
%TO.C,C21*%
X164840000Y-53300000D02*
X164840000Y-54760000D01*
X164840000Y-54760000D02*
X167800000Y-54760000D01*
X167800000Y-53300000D02*
X164840000Y-53300000D01*
X167800000Y-54760000D02*
X167800000Y-53300000D01*
%TO.C,C11*%
X139090000Y-112480000D02*
X137630000Y-112480000D01*
X137630000Y-112480000D02*
X137630000Y-115440000D01*
X139090000Y-115440000D02*
X139090000Y-112480000D01*
X137630000Y-115440000D02*
X139090000Y-115440000D01*
%TD*%
M02*
