M48
; DRILL file {KiCad 8.0.4-8.0.4-0~ubuntu24.04.1} date 2024-08-21T06:51:20+0700
; FORMAT={-:-/ absolute / inch / decimal}
; #@! TF.CreationDate,2024-08-21T06:51:20+07:00
; #@! TF.GenerationSoftware,Kicad,Pcbnew,8.0.4-8.0.4-0~ubuntu24.04.1
; #@! TF.FileFunction,Plated,1,3,Blind
FMAT,2
INCH
; #@! TA.AperFunction,Plated,Buried,ViaDrill
T1C0.0079
; #@! TA.AperFunction,Plated,Buried,ViaDrill
T2C0.0157
%
G90
G05
T1
X3.1073Y-6.0265
X3.3325Y-6.0267
X3.4575Y-3.2854
X3.5585Y-6.0267
X3.5602Y-1.0524
X3.561Y-1.1421
X3.5614Y-1.2209
X3.5614Y-1.2874
X3.5614Y-1.3614
X3.7848Y-6.0267
X5.2482Y-5.1834
X5.3563Y-3.1717
X5.3638Y-3.1224
X5.3654Y-3.3327
X5.3815Y-3.074
X5.425Y-3.2181
X5.4268Y-3.0079
X5.4535Y-3.2736
X5.4591Y-3.4728
X5.4594Y-3.3843
X5.5343Y-2.9854
X5.5498Y-1.6678
X5.578Y-3.4866
X5.6091Y-3.4185
X5.6323Y-2.9783
X5.7453Y-3.552
X5.7504Y-2.9752
X5.7701Y-3.3642
X5.7732Y-3.0197
X5.7768Y-3.2748
X5.7913Y-3.4449
X5.8075Y-3.087
X5.826Y-3.2035
X5.8323Y-3.1374
X6.0091Y-2.0067
X6.1685Y-1.9224
X6.1984Y-2.0992
X6.2421Y-1.7961
X6.7601Y-2.3093
X7.005Y-2.3108
X7.2256Y-1.5386
X7.2653Y-2.3104
X7.3667Y-3.6033
X7.52Y-2.3096
X7.6803Y-1.3484
X8.0388Y-5.277
T2
X2.6535Y-2.5404
X2.6563Y-1.8283
X3.1984Y-1.9091
X3.265Y-4.3063
X4.5031Y-6.063
X4.5289Y-1.4753
X6.2691Y-5.3759
X6.2949Y-0.7539
X7.5592Y-2.5825
X8.2622Y-4.3484
M30
