M48
; DRILL file {KiCad 8.0.4-8.0.4-0~ubuntu24.04.1} date 2024-08-21T06:51:20+0700
; FORMAT={-:-/ absolute / inch / decimal}
; #@! TF.CreationDate,2024-08-21T06:51:20+07:00
; #@! TF.GenerationSoftware,Kicad,Pcbnew,8.0.4-8.0.4-0~ubuntu24.04.1
; #@! TF.FileFunction,Plated,1,2,Blind
FMAT,2
INCH
; #@! TA.AperFunction,Plated,Buried,ViaDrill
T1C0.0079
%
G90
G05
T1
X2.6151Y-1.3783
X2.6812Y-4.3091
X2.7965Y-3.1654
X2.7984Y-3.639
X2.952Y-5.735
X2.9969Y-3.1606
X3.0686Y-3.5854
X3.078Y-1.1587
X3.1776Y-5.7496
X3.201Y-2.5396
X3.2071Y-1.0051
X3.4079Y-5.7492
X3.4339Y-1.1217
X3.5138Y-2.2248
X3.6392Y-5.7496
X4.1209Y-2.454
X4.1209Y-2.5485
X4.1209Y-2.6489
X4.1244Y-2.8442
X4.126Y-2.9588
X4.126Y-3.0584
X4.126Y-3.1556
X4.1319Y-3.4513
X4.1319Y-3.5474
X4.1319Y-3.6529
X4.1319Y-3.9513
X4.1319Y-4.0552
X4.1319Y-4.1521
X4.5024Y-5.44
X4.5262Y-0.8914
X4.7925Y-2.7037
X4.8366Y-2.8781
X4.8539Y-3.0485
X4.8606Y-3.2198
X4.861Y-3.5592
X4.861Y-3.7324
X4.863Y-3.3926
X5.1197Y-5.6469
X5.1339Y-5.863
X5.2091Y-0.998
X5.2498Y-1.2788
X5.3804Y-3.2011
X5.3819Y-3.2996
X5.3878Y-3.2492
X5.4126Y-3.4193
X5.4193Y-3.1598
X5.4228Y-3.1161
X5.435Y-3.3276
X5.4437Y-3.0547
X5.5094Y-3.4606
X5.5482Y-5.5724
X5.5768Y-2.9512
X5.6051Y-5.85
X5.6157Y-3.4728
X5.6348Y-2.8217
X5.672Y-3.6201
X5.678Y-3.4756
X5.6858Y-0.9807
X5.6898Y-2.9484
X5.7224Y-1.1803
X5.7354Y-3.4709
X5.7677Y-3.1134
X5.7677Y-3.4063
X5.7862Y-3.1579
X5.8063Y-3.3335
X5.811Y-3.2437
X5.8134Y-3.0469
X5.8398Y-2.9531
X6.0126Y-5.9858
X6.0157Y-1.9516
X6.0185Y-2.0827
X6.1996Y-1.9598
X6.2719Y-5.9598
X6.2858Y-2.0961
X6.2957Y-1.4112
X6.3028Y-1.9118
X6.4543Y-3.6764
X6.7528Y-1.0795
X7.2665Y-5.5157
X7.2807Y-5.0189
X7.3386Y-0.9193
X7.3948Y-1.4165
X7.6232Y-4.3492
X7.7435Y-1.539
X7.7556Y-3.3033
X7.8323Y-3.7461
X8.0244Y-3.2346
X8.0421Y-3.7232
X8.143Y-2.5797
M30
