M48
; DRILL file {KiCad 8.0.4-8.0.4-0~ubuntu24.04.1} date 2024-08-21T06:51:20+0700
; FORMAT={-:-/ absolute / inch / decimal}
; #@! TF.CreationDate,2024-08-21T06:51:20+07:00
; #@! TF.GenerationSoftware,Kicad,Pcbnew,8.0.4-8.0.4-0~ubuntu24.04.1
; #@! TF.FileFunction,Plated,1,4,PTH
FMAT,2
INCH
; #@! TA.AperFunction,Plated,PTH,ViaDrill
T1C0.0157
; #@! TA.AperFunction,Plated,PTH,ComponentDrill
T2C0.0197
; #@! TA.AperFunction,Plated,PTH,ComponentDrill
T3C0.0394
; #@! TA.AperFunction,Plated,PTH,ComponentDrill
T4C0.0433
; #@! TA.AperFunction,Plated,PTH,ComponentDrill
T5C0.0591
; #@! TA.AperFunction,Plated,PTH,ComponentDrill
T6C0.0669
; #@! TA.AperFunction,Plated,PTH,ComponentDrill
T7C0.0787
; #@! TA.AperFunction,Plated,PTH,ComponentDrill
T8C0.1457
%
G90
G05
T1
X3.0701Y-3.1945
X3.0705Y-3.0106
X3.4114Y-2.3169
X3.696Y-3.4904
X3.696Y-3.5278
X4.5311Y-4.9783
X4.639Y-4.0656
X4.639Y-4.103
X4.6646Y-4.3831
X4.9181Y-4.7756
X4.9734Y-5.5704
X5.0673Y-3.978
X5.1573Y-5.5708
X5.3293Y-2.3008
X5.3313Y-1.8621
X5.365Y-2.7157
X5.3667Y-2.3008
X5.3687Y-1.8621
X5.4187Y-2.714
X5.4591Y-2.6921
X5.4898Y-2.6567
X5.5197Y-2.6264
X5.5258Y-4.3063
X5.5551Y-2.7232
X5.5632Y-4.3063
X5.595Y-3.8701
X5.6214Y-3.8965
X5.6407Y-1.2804
X5.6484Y-2.3124
X5.6484Y-2.3498
X5.6693Y-4.8132
X5.6693Y-4.8506
X5.7465Y-2.3837
X5.7465Y-2.4211
X5.7493Y-2.6931
X5.7744Y-3.8668
X5.7778Y-2.2878
X5.7778Y-2.3252
X5.7846Y-3.9008
X5.8025Y-2.6828
X5.8246Y-1.2808
X5.829Y-2.7093
X5.8398Y-3.5634
X5.8449Y-3.8146
X5.874Y-2.7067
X5.9433Y-2.952
X5.9752Y-4.0114
X6.0173Y-4.052
X6.0213Y-2.9563
X6.0579Y-4.0984
X6.0957Y-2.9567
X6.178Y-2.9583
X6.2378Y-3.9583
X6.2545Y-3.8667
X6.2878Y-3.7972
X6.2984Y-3.598
X6.348Y-3.3728
X6.4063Y-3.9102
X6.6248Y-1.7862
X6.8244Y-4.7551
X7.0398Y-2.4768
X7.1791Y-2.5055
X7.1913Y-1.3071
X7.2504Y-2.563
X7.3823Y-1.3244
X7.7537Y-3.8781
X7.7541Y-3.6943
T2
X2.6017Y-5.9216
X2.6337Y-5.8443
X2.6337Y-5.9988
X2.7109Y-5.8123
X2.7109Y-6.0308
X2.7882Y-5.8443
X2.7882Y-5.9988
X2.8202Y-5.9216
X3.6628Y-0.9844
X3.6948Y-0.9072
X3.6948Y-1.0617
X3.772Y-0.8752
X3.772Y-1.0937
X3.8493Y-0.9072
X3.8493Y-1.0617
X3.8813Y-0.9844
X8.034Y-0.8755
X8.0369Y-5.9414
X8.066Y-0.7983
X8.066Y-0.9528
X8.0689Y-5.8642
X8.0689Y-6.0187
X8.1432Y-0.7663
X8.1432Y-0.9848
X8.1462Y-5.8322
X8.1462Y-6.0507
X8.2205Y-0.7983
X8.2205Y-0.9528
X8.2234Y-5.8642
X8.2234Y-6.0187
X8.2525Y-0.8755
X8.2554Y-5.9414
T3
X2.7154Y-2.052
X2.7154Y-2.152
X2.7827Y-3.9884
X2.7831Y-4.3093
X2.7848Y-3.8356
X2.7848Y-4.1447
X2.7854Y-2.6955
X2.7862Y-2.5404
X2.787Y-2.851
X2.787Y-3.0077
X2.8766Y-3.3069
X2.8766Y-3.4069
X2.8766Y-3.5069
X2.8827Y-3.9884
X2.8831Y-4.3093
X2.8848Y-3.8356
X2.8848Y-4.1447
X2.8854Y-2.6955
X2.8862Y-2.5404
X2.887Y-2.851
X2.887Y-3.0077
X2.9766Y-3.3069
X2.9766Y-3.4069
X2.9766Y-3.5069
X3.9112Y-2.3454
X3.9112Y-2.4454
X3.9112Y-2.5454
X3.9112Y-2.6454
X3.9112Y-2.7454
X3.9112Y-2.8454
X3.9112Y-2.9454
X3.9112Y-3.0454
X3.9112Y-3.1454
X3.9112Y-3.2454
X3.9112Y-3.3454
X3.9112Y-3.4454
X3.9112Y-3.5454
X3.9112Y-3.6454
X3.9112Y-3.7454
X3.9112Y-3.8454
X3.9112Y-3.9454
X3.9112Y-4.0454
X3.9112Y-4.1454
X3.9112Y-4.2454
X4.0112Y-2.3454
X4.0112Y-2.4454
X4.0112Y-2.5454
X4.0112Y-2.6454
X4.0112Y-2.7454
X4.0112Y-2.8454
X4.0112Y-2.9454
X4.0112Y-3.0454
X4.0112Y-3.1454
X4.0112Y-3.2454
X4.0112Y-3.3454
X4.0112Y-3.4454
X4.0112Y-3.5454
X4.0112Y-3.6454
X4.0112Y-3.7454
X4.0112Y-3.8454
X4.0112Y-3.9454
X4.0112Y-4.0454
X4.0112Y-4.1454
X4.0112Y-4.2454
X4.0689Y-1.3047
X4.0689Y-1.4047
X4.0689Y-1.5047
X4.0689Y-1.6047
X4.0689Y-1.7047
X4.5031Y-5.7547
X4.5031Y-5.8547
X4.526Y-0.9933
X4.526Y-1.0933
X4.6583Y-5.7555
X4.6583Y-5.8555
X4.6906Y-0.9951
X4.6906Y-1.0951
X4.8138Y-5.7539
X4.8138Y-5.8539
X4.8469Y-0.9929
X4.8469Y-1.0929
X4.9705Y-5.7539
X4.9705Y-5.8539
X4.9996Y-0.9951
X4.9996Y-1.0951
X5.3112Y-5.6526
X5.3112Y-5.7526
X5.3207Y-1.0719
X5.3207Y-1.1719
X5.4112Y-5.6526
X5.4112Y-5.7526
X5.4207Y-1.0719
X5.4207Y-1.1719
X5.5112Y-5.6526
X5.5112Y-5.7526
X5.5207Y-1.0719
X5.5207Y-1.1719
X5.7984Y-5.7561
X5.7984Y-5.8561
X5.8276Y-0.9972
X5.8276Y-1.0972
X5.9512Y-5.7583
X5.9512Y-5.8583
X5.9681Y-4.5769
X5.9681Y-4.6769
X5.9843Y-0.9972
X5.9843Y-1.0972
X6.1075Y-5.7561
X6.1075Y-5.8561
X6.1114Y-4.577
X6.1114Y-4.677
X6.1398Y-0.9957
X6.1398Y-1.0957
X6.2543Y-4.5774
X6.2543Y-4.6774
X6.272Y-5.7579
X6.272Y-5.8579
X6.2949Y-0.9965
X6.2949Y-1.0965
X6.8746Y-2.0323
X6.8746Y-2.1323
X6.8835Y-1.0756
X6.8835Y-1.1756
X6.9664Y-4.7555
X7.0664Y-4.7555
X7.1077Y-3.7249
X7.1077Y-3.8249
X7.1077Y-3.9249
X7.1077Y-4.0249
X7.1077Y-4.1249
X7.1077Y-4.2249
X7.1077Y-4.3249
X7.1077Y-4.4249
X7.1077Y-4.5249
X7.124Y-2.0323
X7.124Y-2.1323
X7.3865Y-2.0402
X7.3865Y-2.1402
X7.4238Y-5.5205
X7.4297Y-5.7575
X7.5238Y-5.5205
X7.5285Y-1.539
X7.5297Y-5.7575
X7.6285Y-1.539
X7.637Y-2.0453
X7.637Y-2.1453
X7.8616Y-3.3089
X7.8616Y-3.4089
X7.8616Y-3.5089
X7.9372Y-3.8811
X7.9372Y-4.0378
X7.938Y-4.3484
X7.9388Y-4.1933
X7.9394Y-2.7441
X7.9394Y-3.0531
X7.9411Y-2.5795
X7.9415Y-2.9004
X7.9616Y-3.3089
X7.9616Y-3.4089
X7.9616Y-3.5089
X8.0372Y-3.8811
X8.0372Y-4.0378
X8.038Y-4.3484
X8.0388Y-4.1933
X8.0394Y-2.7441
X8.0394Y-3.0531
X8.0411Y-2.5795
X8.0415Y-2.9004
T4
X2.9429Y-1.9984
X2.9429Y-2.1756
X3.1988Y-1.9984
X3.1988Y-2.1756
X7.7839Y-5.0031
X7.7839Y-5.1803
X8.0398Y-5.0031
X8.0398Y-5.1803
T5
X2.7665Y-0.878
X7.8264Y-1.1079
X7.9193Y-5.6307
T6
X2.6665Y-0.778
X2.6665Y-0.978
X2.8665Y-0.778
X2.8665Y-0.978
X7.7264Y-1.0079
X7.7264Y-1.2079
X7.8193Y-5.5307
X7.8193Y-5.7307
X7.9264Y-1.0079
X7.9264Y-1.2079
X8.0193Y-5.5307
X8.0193Y-5.7307
T7
X3.0331Y-4.9728
X3.4835Y-2.8728
X3.5189Y-4.0465
X4.1004Y-5.5878
X4.8024Y-5.2531
X4.8421Y-1.5539
X5.1138Y-1.9669
X6.0303Y-5.2677
X6.0346Y-1.5551
X7.4276Y-4.8362
X7.4287Y-2.8402
X7.4862Y-4.1181
X8.0173Y-1.5173
X8.0185Y-1.9543
T8
X2.7109Y-5.9216
X3.772Y-0.9844
X8.1432Y-0.8755
X8.1462Y-5.9414
M30
