%TF.GenerationSoftware,KiCad,Pcbnew,7.0.6-7.0.6~ubuntu20.04.1*%
%TF.CreationDate,2023-08-31T23:31:16+07:00*%
%TF.ProjectId,qpix,71706978-2e6b-4696-9361-645f70636258,rev?*%
%TF.SameCoordinates,Original*%
%TF.FileFunction,Paste,Bot*%
%TF.FilePolarity,Positive*%
%FSLAX46Y46*%
G04 Gerber Fmt 4.6, Leading zero omitted, Abs format (unit mm)*
G04 Created by KiCad (PCBNEW 7.0.6-7.0.6~ubuntu20.04.1) date 2023-08-31 23:31:16*
%MOMM*%
%LPD*%
G01*
G04 APERTURE LIST*
G04 Aperture macros list*
%AMRoundRect*
0 Rectangle with rounded corners*
0 $1 Rounding radius*
0 $2 $3 $4 $5 $6 $7 $8 $9 X,Y pos of 4 corners*
0 Add a 4 corners polygon primitive as box body*
4,1,4,$2,$3,$4,$5,$6,$7,$8,$9,$2,$3,0*
0 Add four circle primitives for the rounded corners*
1,1,$1+$1,$2,$3*
1,1,$1+$1,$4,$5*
1,1,$1+$1,$6,$7*
1,1,$1+$1,$8,$9*
0 Add four rect primitives between the rounded corners*
20,1,$1+$1,$2,$3,$4,$5,0*
20,1,$1+$1,$4,$5,$6,$7,0*
20,1,$1+$1,$6,$7,$8,$9,0*
20,1,$1+$1,$8,$9,$2,$3,0*%
G04 Aperture macros list end*
%ADD10RoundRect,0.225000X0.225000X0.250000X-0.225000X0.250000X-0.225000X-0.250000X0.225000X-0.250000X0*%
%ADD11RoundRect,0.225000X0.250000X-0.225000X0.250000X0.225000X-0.250000X0.225000X-0.250000X-0.225000X0*%
%ADD12RoundRect,0.225000X-0.225000X-0.250000X0.225000X-0.250000X0.225000X0.250000X-0.225000X0.250000X0*%
%ADD13RoundRect,0.225000X-0.250000X0.225000X-0.250000X-0.225000X0.250000X-0.225000X0.250000X0.225000X0*%
%ADD14R,0.800000X0.300000*%
%ADD15R,0.300000X0.800000*%
%ADD16R,1.800000X1.800000*%
%ADD17RoundRect,0.200000X-0.275000X0.200000X-0.275000X-0.200000X0.275000X-0.200000X0.275000X0.200000X0*%
%ADD18RoundRect,0.200000X-0.200000X-0.275000X0.200000X-0.275000X0.200000X0.275000X-0.200000X0.275000X0*%
%ADD19RoundRect,0.200000X0.200000X0.275000X-0.200000X0.275000X-0.200000X-0.275000X0.200000X-0.275000X0*%
G04 APERTURE END LIST*
D10*
%TO.C,C5*%
X131985000Y-104750000D03*
X130435000Y-104750000D03*
%TD*%
D11*
%TO.C,C16*%
X145110000Y-98945000D03*
X145110000Y-97395000D03*
%TD*%
D10*
%TO.C,C4*%
X131973000Y-100690000D03*
X130423000Y-100690000D03*
%TD*%
D11*
%TO.C,C17*%
X141950000Y-98845000D03*
X141950000Y-97295000D03*
%TD*%
D12*
%TO.C,C12*%
X147425000Y-111230000D03*
X148975000Y-111230000D03*
%TD*%
D11*
%TO.C,C18*%
X138680000Y-98895000D03*
X138680000Y-97345000D03*
%TD*%
D13*
%TO.C,C20*%
X131870000Y-91710000D03*
X131870000Y-93260000D03*
%TD*%
%TO.C,C10*%
X141650000Y-113485000D03*
X141650000Y-115035000D03*
%TD*%
D14*
%TO.C,U4*%
X165170000Y-56220000D03*
X165170000Y-56720000D03*
X165170000Y-57220000D03*
X165170000Y-57720000D03*
D15*
X164420000Y-58470000D03*
X163920000Y-58470000D03*
X163420000Y-58470000D03*
X162920000Y-58470000D03*
D14*
X162170000Y-57720000D03*
X162170000Y-57220000D03*
X162170000Y-56720000D03*
X162170000Y-56220000D03*
D15*
X162920000Y-55470000D03*
X163420000Y-55470000D03*
X163920000Y-55470000D03*
X164420000Y-55470000D03*
D16*
X163670000Y-56970000D03*
%TD*%
D17*
%TO.C,R12*%
X113970000Y-131602000D03*
X113970000Y-133252000D03*
%TD*%
%TO.C,R6*%
X121170000Y-131613000D03*
X121170000Y-133263000D03*
%TD*%
D10*
%TO.C,C8*%
X131923000Y-111340000D03*
X130373000Y-111340000D03*
%TD*%
D14*
%TO.C,U3*%
X133830000Y-87810000D03*
X133830000Y-88310000D03*
X133830000Y-88810000D03*
X133830000Y-89310000D03*
D15*
X133080000Y-90060000D03*
X132580000Y-90060000D03*
X132080000Y-90060000D03*
X131580000Y-90060000D03*
D14*
X130830000Y-89310000D03*
X130830000Y-88810000D03*
X130830000Y-88310000D03*
X130830000Y-87810000D03*
D15*
X131580000Y-87060000D03*
X132080000Y-87060000D03*
X132580000Y-87060000D03*
X133080000Y-87060000D03*
D16*
X132330000Y-88560000D03*
%TD*%
D18*
%TO.C,R5*%
X161213250Y-88560000D03*
X162863250Y-88560000D03*
%TD*%
D19*
%TO.C,R34*%
X162935000Y-52910000D03*
X161285000Y-52910000D03*
%TD*%
D11*
%TO.C,C19*%
X130030000Y-85435000D03*
X130030000Y-83885000D03*
%TD*%
D12*
%TO.C,C13*%
X147298000Y-107801000D03*
X148848000Y-107801000D03*
%TD*%
D11*
%TO.C,C7*%
X135720000Y-98665000D03*
X135720000Y-97115000D03*
%TD*%
D13*
%TO.C,C9*%
X135040000Y-113395000D03*
X135040000Y-114945000D03*
%TD*%
%TO.C,C24*%
X145060000Y-113485000D03*
X145060000Y-115035000D03*
%TD*%
D17*
%TO.C,R11*%
X117480000Y-131623000D03*
X117480000Y-133273000D03*
%TD*%
D10*
%TO.C,C6*%
X131953000Y-107950000D03*
X130403000Y-107950000D03*
%TD*%
D12*
%TO.C,C15*%
X147325000Y-101370000D03*
X148875000Y-101370000D03*
%TD*%
%TO.C,C14*%
X147270000Y-104957000D03*
X148820000Y-104957000D03*
%TD*%
%TO.C,C21*%
X165545000Y-54030000D03*
X167095000Y-54030000D03*
%TD*%
D13*
%TO.C,C11*%
X138360000Y-113185000D03*
X138360000Y-114735000D03*
%TD*%
M02*
