%TF.GenerationSoftware,KiCad,Pcbnew,7.0.6-7.0.6~ubuntu20.04.1*%
%TF.CreationDate,2023-08-31T23:31:16+07:00*%
%TF.ProjectId,qpix,71706978-2e6b-4696-9361-645f70636258,rev?*%
%TF.SameCoordinates,Original*%
%TF.FileFunction,Legend,Bot*%
%TF.FilePolarity,Positive*%
%FSLAX46Y46*%
G04 Gerber Fmt 4.6, Leading zero omitted, Abs format (unit mm)*
G04 Created by KiCad (PCBNEW 7.0.6-7.0.6~ubuntu20.04.1) date 2023-08-31 23:31:16*
%MOMM*%
%LPD*%
G01*
G04 APERTURE LIST*
%ADD10C,0.150000*%
%ADD11C,0.254000*%
%ADD12C,0.120000*%
%ADD13C,0.250000*%
G04 APERTURE END LIST*
D10*
X131376666Y-103679580D02*
X131424285Y-103727200D01*
X131424285Y-103727200D02*
X131567142Y-103774819D01*
X131567142Y-103774819D02*
X131662380Y-103774819D01*
X131662380Y-103774819D02*
X131805237Y-103727200D01*
X131805237Y-103727200D02*
X131900475Y-103631961D01*
X131900475Y-103631961D02*
X131948094Y-103536723D01*
X131948094Y-103536723D02*
X131995713Y-103346247D01*
X131995713Y-103346247D02*
X131995713Y-103203390D01*
X131995713Y-103203390D02*
X131948094Y-103012914D01*
X131948094Y-103012914D02*
X131900475Y-102917676D01*
X131900475Y-102917676D02*
X131805237Y-102822438D01*
X131805237Y-102822438D02*
X131662380Y-102774819D01*
X131662380Y-102774819D02*
X131567142Y-102774819D01*
X131567142Y-102774819D02*
X131424285Y-102822438D01*
X131424285Y-102822438D02*
X131376666Y-102870057D01*
X130471904Y-102774819D02*
X130948094Y-102774819D01*
X130948094Y-102774819D02*
X130995713Y-103251009D01*
X130995713Y-103251009D02*
X130948094Y-103203390D01*
X130948094Y-103203390D02*
X130852856Y-103155771D01*
X130852856Y-103155771D02*
X130614761Y-103155771D01*
X130614761Y-103155771D02*
X130519523Y-103203390D01*
X130519523Y-103203390D02*
X130471904Y-103251009D01*
X130471904Y-103251009D02*
X130424285Y-103346247D01*
X130424285Y-103346247D02*
X130424285Y-103584342D01*
X130424285Y-103584342D02*
X130471904Y-103679580D01*
X130471904Y-103679580D02*
X130519523Y-103727200D01*
X130519523Y-103727200D02*
X130614761Y-103774819D01*
X130614761Y-103774819D02*
X130852856Y-103774819D01*
X130852856Y-103774819D02*
X130948094Y-103727200D01*
X130948094Y-103727200D02*
X130995713Y-103679580D01*
X147109580Y-97562142D02*
X147157200Y-97514523D01*
X147157200Y-97514523D02*
X147204819Y-97371666D01*
X147204819Y-97371666D02*
X147204819Y-97276428D01*
X147204819Y-97276428D02*
X147157200Y-97133571D01*
X147157200Y-97133571D02*
X147061961Y-97038333D01*
X147061961Y-97038333D02*
X146966723Y-96990714D01*
X146966723Y-96990714D02*
X146776247Y-96943095D01*
X146776247Y-96943095D02*
X146633390Y-96943095D01*
X146633390Y-96943095D02*
X146442914Y-96990714D01*
X146442914Y-96990714D02*
X146347676Y-97038333D01*
X146347676Y-97038333D02*
X146252438Y-97133571D01*
X146252438Y-97133571D02*
X146204819Y-97276428D01*
X146204819Y-97276428D02*
X146204819Y-97371666D01*
X146204819Y-97371666D02*
X146252438Y-97514523D01*
X146252438Y-97514523D02*
X146300057Y-97562142D01*
X147204819Y-98514523D02*
X147204819Y-97943095D01*
X147204819Y-98228809D02*
X146204819Y-98228809D01*
X146204819Y-98228809D02*
X146347676Y-98133571D01*
X146347676Y-98133571D02*
X146442914Y-98038333D01*
X146442914Y-98038333D02*
X146490533Y-97943095D01*
X146204819Y-99371666D02*
X146204819Y-99181190D01*
X146204819Y-99181190D02*
X146252438Y-99085952D01*
X146252438Y-99085952D02*
X146300057Y-99038333D01*
X146300057Y-99038333D02*
X146442914Y-98943095D01*
X146442914Y-98943095D02*
X146633390Y-98895476D01*
X146633390Y-98895476D02*
X147014342Y-98895476D01*
X147014342Y-98895476D02*
X147109580Y-98943095D01*
X147109580Y-98943095D02*
X147157200Y-98990714D01*
X147157200Y-98990714D02*
X147204819Y-99085952D01*
X147204819Y-99085952D02*
X147204819Y-99276428D01*
X147204819Y-99276428D02*
X147157200Y-99371666D01*
X147157200Y-99371666D02*
X147109580Y-99419285D01*
X147109580Y-99419285D02*
X147014342Y-99466904D01*
X147014342Y-99466904D02*
X146776247Y-99466904D01*
X146776247Y-99466904D02*
X146681009Y-99419285D01*
X146681009Y-99419285D02*
X146633390Y-99371666D01*
X146633390Y-99371666D02*
X146585771Y-99276428D01*
X146585771Y-99276428D02*
X146585771Y-99085952D01*
X146585771Y-99085952D02*
X146633390Y-98990714D01*
X146633390Y-98990714D02*
X146681009Y-98943095D01*
X146681009Y-98943095D02*
X146776247Y-98895476D01*
X131364666Y-99619580D02*
X131412285Y-99667200D01*
X131412285Y-99667200D02*
X131555142Y-99714819D01*
X131555142Y-99714819D02*
X131650380Y-99714819D01*
X131650380Y-99714819D02*
X131793237Y-99667200D01*
X131793237Y-99667200D02*
X131888475Y-99571961D01*
X131888475Y-99571961D02*
X131936094Y-99476723D01*
X131936094Y-99476723D02*
X131983713Y-99286247D01*
X131983713Y-99286247D02*
X131983713Y-99143390D01*
X131983713Y-99143390D02*
X131936094Y-98952914D01*
X131936094Y-98952914D02*
X131888475Y-98857676D01*
X131888475Y-98857676D02*
X131793237Y-98762438D01*
X131793237Y-98762438D02*
X131650380Y-98714819D01*
X131650380Y-98714819D02*
X131555142Y-98714819D01*
X131555142Y-98714819D02*
X131412285Y-98762438D01*
X131412285Y-98762438D02*
X131364666Y-98810057D01*
X130507523Y-99048152D02*
X130507523Y-99714819D01*
X130745618Y-98667200D02*
X130983713Y-99381485D01*
X130983713Y-99381485D02*
X130364666Y-99381485D01*
X143739580Y-97427142D02*
X143787200Y-97379523D01*
X143787200Y-97379523D02*
X143834819Y-97236666D01*
X143834819Y-97236666D02*
X143834819Y-97141428D01*
X143834819Y-97141428D02*
X143787200Y-96998571D01*
X143787200Y-96998571D02*
X143691961Y-96903333D01*
X143691961Y-96903333D02*
X143596723Y-96855714D01*
X143596723Y-96855714D02*
X143406247Y-96808095D01*
X143406247Y-96808095D02*
X143263390Y-96808095D01*
X143263390Y-96808095D02*
X143072914Y-96855714D01*
X143072914Y-96855714D02*
X142977676Y-96903333D01*
X142977676Y-96903333D02*
X142882438Y-96998571D01*
X142882438Y-96998571D02*
X142834819Y-97141428D01*
X142834819Y-97141428D02*
X142834819Y-97236666D01*
X142834819Y-97236666D02*
X142882438Y-97379523D01*
X142882438Y-97379523D02*
X142930057Y-97427142D01*
X143834819Y-98379523D02*
X143834819Y-97808095D01*
X143834819Y-98093809D02*
X142834819Y-98093809D01*
X142834819Y-98093809D02*
X142977676Y-97998571D01*
X142977676Y-97998571D02*
X143072914Y-97903333D01*
X143072914Y-97903333D02*
X143120533Y-97808095D01*
X142834819Y-98712857D02*
X142834819Y-99379523D01*
X142834819Y-99379523D02*
X143834819Y-98950952D01*
X148842857Y-113019580D02*
X148890476Y-113067200D01*
X148890476Y-113067200D02*
X149033333Y-113114819D01*
X149033333Y-113114819D02*
X149128571Y-113114819D01*
X149128571Y-113114819D02*
X149271428Y-113067200D01*
X149271428Y-113067200D02*
X149366666Y-112971961D01*
X149366666Y-112971961D02*
X149414285Y-112876723D01*
X149414285Y-112876723D02*
X149461904Y-112686247D01*
X149461904Y-112686247D02*
X149461904Y-112543390D01*
X149461904Y-112543390D02*
X149414285Y-112352914D01*
X149414285Y-112352914D02*
X149366666Y-112257676D01*
X149366666Y-112257676D02*
X149271428Y-112162438D01*
X149271428Y-112162438D02*
X149128571Y-112114819D01*
X149128571Y-112114819D02*
X149033333Y-112114819D01*
X149033333Y-112114819D02*
X148890476Y-112162438D01*
X148890476Y-112162438D02*
X148842857Y-112210057D01*
X147890476Y-113114819D02*
X148461904Y-113114819D01*
X148176190Y-113114819D02*
X148176190Y-112114819D01*
X148176190Y-112114819D02*
X148271428Y-112257676D01*
X148271428Y-112257676D02*
X148366666Y-112352914D01*
X148366666Y-112352914D02*
X148461904Y-112400533D01*
X147509523Y-112210057D02*
X147461904Y-112162438D01*
X147461904Y-112162438D02*
X147366666Y-112114819D01*
X147366666Y-112114819D02*
X147128571Y-112114819D01*
X147128571Y-112114819D02*
X147033333Y-112162438D01*
X147033333Y-112162438D02*
X146985714Y-112210057D01*
X146985714Y-112210057D02*
X146938095Y-112305295D01*
X146938095Y-112305295D02*
X146938095Y-112400533D01*
X146938095Y-112400533D02*
X146985714Y-112543390D01*
X146985714Y-112543390D02*
X147557142Y-113114819D01*
X147557142Y-113114819D02*
X146938095Y-113114819D01*
X140469580Y-97477142D02*
X140517200Y-97429523D01*
X140517200Y-97429523D02*
X140564819Y-97286666D01*
X140564819Y-97286666D02*
X140564819Y-97191428D01*
X140564819Y-97191428D02*
X140517200Y-97048571D01*
X140517200Y-97048571D02*
X140421961Y-96953333D01*
X140421961Y-96953333D02*
X140326723Y-96905714D01*
X140326723Y-96905714D02*
X140136247Y-96858095D01*
X140136247Y-96858095D02*
X139993390Y-96858095D01*
X139993390Y-96858095D02*
X139802914Y-96905714D01*
X139802914Y-96905714D02*
X139707676Y-96953333D01*
X139707676Y-96953333D02*
X139612438Y-97048571D01*
X139612438Y-97048571D02*
X139564819Y-97191428D01*
X139564819Y-97191428D02*
X139564819Y-97286666D01*
X139564819Y-97286666D02*
X139612438Y-97429523D01*
X139612438Y-97429523D02*
X139660057Y-97477142D01*
X140564819Y-98429523D02*
X140564819Y-97858095D01*
X140564819Y-98143809D02*
X139564819Y-98143809D01*
X139564819Y-98143809D02*
X139707676Y-98048571D01*
X139707676Y-98048571D02*
X139802914Y-97953333D01*
X139802914Y-97953333D02*
X139850533Y-97858095D01*
X139993390Y-99000952D02*
X139945771Y-98905714D01*
X139945771Y-98905714D02*
X139898152Y-98858095D01*
X139898152Y-98858095D02*
X139802914Y-98810476D01*
X139802914Y-98810476D02*
X139755295Y-98810476D01*
X139755295Y-98810476D02*
X139660057Y-98858095D01*
X139660057Y-98858095D02*
X139612438Y-98905714D01*
X139612438Y-98905714D02*
X139564819Y-99000952D01*
X139564819Y-99000952D02*
X139564819Y-99191428D01*
X139564819Y-99191428D02*
X139612438Y-99286666D01*
X139612438Y-99286666D02*
X139660057Y-99334285D01*
X139660057Y-99334285D02*
X139755295Y-99381904D01*
X139755295Y-99381904D02*
X139802914Y-99381904D01*
X139802914Y-99381904D02*
X139898152Y-99334285D01*
X139898152Y-99334285D02*
X139945771Y-99286666D01*
X139945771Y-99286666D02*
X139993390Y-99191428D01*
X139993390Y-99191428D02*
X139993390Y-99000952D01*
X139993390Y-99000952D02*
X140041009Y-98905714D01*
X140041009Y-98905714D02*
X140088628Y-98858095D01*
X140088628Y-98858095D02*
X140183866Y-98810476D01*
X140183866Y-98810476D02*
X140374342Y-98810476D01*
X140374342Y-98810476D02*
X140469580Y-98858095D01*
X140469580Y-98858095D02*
X140517200Y-98905714D01*
X140517200Y-98905714D02*
X140564819Y-99000952D01*
X140564819Y-99000952D02*
X140564819Y-99191428D01*
X140564819Y-99191428D02*
X140517200Y-99286666D01*
X140517200Y-99286666D02*
X140469580Y-99334285D01*
X140469580Y-99334285D02*
X140374342Y-99381904D01*
X140374342Y-99381904D02*
X140183866Y-99381904D01*
X140183866Y-99381904D02*
X140088628Y-99334285D01*
X140088628Y-99334285D02*
X140041009Y-99286666D01*
X140041009Y-99286666D02*
X139993390Y-99191428D01*
X133709580Y-92857142D02*
X133757200Y-92809523D01*
X133757200Y-92809523D02*
X133804819Y-92666666D01*
X133804819Y-92666666D02*
X133804819Y-92571428D01*
X133804819Y-92571428D02*
X133757200Y-92428571D01*
X133757200Y-92428571D02*
X133661961Y-92333333D01*
X133661961Y-92333333D02*
X133566723Y-92285714D01*
X133566723Y-92285714D02*
X133376247Y-92238095D01*
X133376247Y-92238095D02*
X133233390Y-92238095D01*
X133233390Y-92238095D02*
X133042914Y-92285714D01*
X133042914Y-92285714D02*
X132947676Y-92333333D01*
X132947676Y-92333333D02*
X132852438Y-92428571D01*
X132852438Y-92428571D02*
X132804819Y-92571428D01*
X132804819Y-92571428D02*
X132804819Y-92666666D01*
X132804819Y-92666666D02*
X132852438Y-92809523D01*
X132852438Y-92809523D02*
X132900057Y-92857142D01*
X132900057Y-93238095D02*
X132852438Y-93285714D01*
X132852438Y-93285714D02*
X132804819Y-93380952D01*
X132804819Y-93380952D02*
X132804819Y-93619047D01*
X132804819Y-93619047D02*
X132852438Y-93714285D01*
X132852438Y-93714285D02*
X132900057Y-93761904D01*
X132900057Y-93761904D02*
X132995295Y-93809523D01*
X132995295Y-93809523D02*
X133090533Y-93809523D01*
X133090533Y-93809523D02*
X133233390Y-93761904D01*
X133233390Y-93761904D02*
X133804819Y-93190476D01*
X133804819Y-93190476D02*
X133804819Y-93809523D01*
X132804819Y-94428571D02*
X132804819Y-94523809D01*
X132804819Y-94523809D02*
X132852438Y-94619047D01*
X132852438Y-94619047D02*
X132900057Y-94666666D01*
X132900057Y-94666666D02*
X132995295Y-94714285D01*
X132995295Y-94714285D02*
X133185771Y-94761904D01*
X133185771Y-94761904D02*
X133423866Y-94761904D01*
X133423866Y-94761904D02*
X133614342Y-94714285D01*
X133614342Y-94714285D02*
X133709580Y-94666666D01*
X133709580Y-94666666D02*
X133757200Y-94619047D01*
X133757200Y-94619047D02*
X133804819Y-94523809D01*
X133804819Y-94523809D02*
X133804819Y-94428571D01*
X133804819Y-94428571D02*
X133757200Y-94333333D01*
X133757200Y-94333333D02*
X133709580Y-94285714D01*
X133709580Y-94285714D02*
X133614342Y-94238095D01*
X133614342Y-94238095D02*
X133423866Y-94190476D01*
X133423866Y-94190476D02*
X133185771Y-94190476D01*
X133185771Y-94190476D02*
X132995295Y-94238095D01*
X132995295Y-94238095D02*
X132900057Y-94285714D01*
X132900057Y-94285714D02*
X132852438Y-94333333D01*
X132852438Y-94333333D02*
X132804819Y-94428571D01*
X140579580Y-113617142D02*
X140627200Y-113569523D01*
X140627200Y-113569523D02*
X140674819Y-113426666D01*
X140674819Y-113426666D02*
X140674819Y-113331428D01*
X140674819Y-113331428D02*
X140627200Y-113188571D01*
X140627200Y-113188571D02*
X140531961Y-113093333D01*
X140531961Y-113093333D02*
X140436723Y-113045714D01*
X140436723Y-113045714D02*
X140246247Y-112998095D01*
X140246247Y-112998095D02*
X140103390Y-112998095D01*
X140103390Y-112998095D02*
X139912914Y-113045714D01*
X139912914Y-113045714D02*
X139817676Y-113093333D01*
X139817676Y-113093333D02*
X139722438Y-113188571D01*
X139722438Y-113188571D02*
X139674819Y-113331428D01*
X139674819Y-113331428D02*
X139674819Y-113426666D01*
X139674819Y-113426666D02*
X139722438Y-113569523D01*
X139722438Y-113569523D02*
X139770057Y-113617142D01*
X140674819Y-114569523D02*
X140674819Y-113998095D01*
X140674819Y-114283809D02*
X139674819Y-114283809D01*
X139674819Y-114283809D02*
X139817676Y-114188571D01*
X139817676Y-114188571D02*
X139912914Y-114093333D01*
X139912914Y-114093333D02*
X139960533Y-113998095D01*
X139674819Y-115188571D02*
X139674819Y-115283809D01*
X139674819Y-115283809D02*
X139722438Y-115379047D01*
X139722438Y-115379047D02*
X139770057Y-115426666D01*
X139770057Y-115426666D02*
X139865295Y-115474285D01*
X139865295Y-115474285D02*
X140055771Y-115521904D01*
X140055771Y-115521904D02*
X140293866Y-115521904D01*
X140293866Y-115521904D02*
X140484342Y-115474285D01*
X140484342Y-115474285D02*
X140579580Y-115426666D01*
X140579580Y-115426666D02*
X140627200Y-115379047D01*
X140627200Y-115379047D02*
X140674819Y-115283809D01*
X140674819Y-115283809D02*
X140674819Y-115188571D01*
X140674819Y-115188571D02*
X140627200Y-115093333D01*
X140627200Y-115093333D02*
X140579580Y-115045714D01*
X140579580Y-115045714D02*
X140484342Y-114998095D01*
X140484342Y-114998095D02*
X140293866Y-114950476D01*
X140293866Y-114950476D02*
X140055771Y-114950476D01*
X140055771Y-114950476D02*
X139865295Y-114998095D01*
X139865295Y-114998095D02*
X139770057Y-115045714D01*
X139770057Y-115045714D02*
X139722438Y-115093333D01*
X139722438Y-115093333D02*
X139674819Y-115188571D01*
D11*
X161297619Y-56424318D02*
X161297619Y-57452413D01*
X161297619Y-57452413D02*
X161237142Y-57573365D01*
X161237142Y-57573365D02*
X161176666Y-57633842D01*
X161176666Y-57633842D02*
X161055714Y-57694318D01*
X161055714Y-57694318D02*
X160813809Y-57694318D01*
X160813809Y-57694318D02*
X160692857Y-57633842D01*
X160692857Y-57633842D02*
X160632380Y-57573365D01*
X160632380Y-57573365D02*
X160571904Y-57452413D01*
X160571904Y-57452413D02*
X160571904Y-56424318D01*
X159422857Y-56847651D02*
X159422857Y-57694318D01*
X159725238Y-56363842D02*
X160027619Y-57270984D01*
X160027619Y-57270984D02*
X159241428Y-57270984D01*
D10*
X112994819Y-131784142D02*
X112518628Y-131450809D01*
X112994819Y-131212714D02*
X111994819Y-131212714D01*
X111994819Y-131212714D02*
X111994819Y-131593666D01*
X111994819Y-131593666D02*
X112042438Y-131688904D01*
X112042438Y-131688904D02*
X112090057Y-131736523D01*
X112090057Y-131736523D02*
X112185295Y-131784142D01*
X112185295Y-131784142D02*
X112328152Y-131784142D01*
X112328152Y-131784142D02*
X112423390Y-131736523D01*
X112423390Y-131736523D02*
X112471009Y-131688904D01*
X112471009Y-131688904D02*
X112518628Y-131593666D01*
X112518628Y-131593666D02*
X112518628Y-131212714D01*
X112994819Y-132736523D02*
X112994819Y-132165095D01*
X112994819Y-132450809D02*
X111994819Y-132450809D01*
X111994819Y-132450809D02*
X112137676Y-132355571D01*
X112137676Y-132355571D02*
X112232914Y-132260333D01*
X112232914Y-132260333D02*
X112280533Y-132165095D01*
X112090057Y-133117476D02*
X112042438Y-133165095D01*
X112042438Y-133165095D02*
X111994819Y-133260333D01*
X111994819Y-133260333D02*
X111994819Y-133498428D01*
X111994819Y-133498428D02*
X112042438Y-133593666D01*
X112042438Y-133593666D02*
X112090057Y-133641285D01*
X112090057Y-133641285D02*
X112185295Y-133688904D01*
X112185295Y-133688904D02*
X112280533Y-133688904D01*
X112280533Y-133688904D02*
X112423390Y-133641285D01*
X112423390Y-133641285D02*
X112994819Y-133069857D01*
X112994819Y-133069857D02*
X112994819Y-133688904D01*
X120194819Y-132271333D02*
X119718628Y-131938000D01*
X120194819Y-131699905D02*
X119194819Y-131699905D01*
X119194819Y-131699905D02*
X119194819Y-132080857D01*
X119194819Y-132080857D02*
X119242438Y-132176095D01*
X119242438Y-132176095D02*
X119290057Y-132223714D01*
X119290057Y-132223714D02*
X119385295Y-132271333D01*
X119385295Y-132271333D02*
X119528152Y-132271333D01*
X119528152Y-132271333D02*
X119623390Y-132223714D01*
X119623390Y-132223714D02*
X119671009Y-132176095D01*
X119671009Y-132176095D02*
X119718628Y-132080857D01*
X119718628Y-132080857D02*
X119718628Y-131699905D01*
X119194819Y-133128476D02*
X119194819Y-132938000D01*
X119194819Y-132938000D02*
X119242438Y-132842762D01*
X119242438Y-132842762D02*
X119290057Y-132795143D01*
X119290057Y-132795143D02*
X119432914Y-132699905D01*
X119432914Y-132699905D02*
X119623390Y-132652286D01*
X119623390Y-132652286D02*
X120004342Y-132652286D01*
X120004342Y-132652286D02*
X120099580Y-132699905D01*
X120099580Y-132699905D02*
X120147200Y-132747524D01*
X120147200Y-132747524D02*
X120194819Y-132842762D01*
X120194819Y-132842762D02*
X120194819Y-133033238D01*
X120194819Y-133033238D02*
X120147200Y-133128476D01*
X120147200Y-133128476D02*
X120099580Y-133176095D01*
X120099580Y-133176095D02*
X120004342Y-133223714D01*
X120004342Y-133223714D02*
X119766247Y-133223714D01*
X119766247Y-133223714D02*
X119671009Y-133176095D01*
X119671009Y-133176095D02*
X119623390Y-133128476D01*
X119623390Y-133128476D02*
X119575771Y-133033238D01*
X119575771Y-133033238D02*
X119575771Y-132842762D01*
X119575771Y-132842762D02*
X119623390Y-132747524D01*
X119623390Y-132747524D02*
X119671009Y-132699905D01*
X119671009Y-132699905D02*
X119766247Y-132652286D01*
X131314666Y-110269580D02*
X131362285Y-110317200D01*
X131362285Y-110317200D02*
X131505142Y-110364819D01*
X131505142Y-110364819D02*
X131600380Y-110364819D01*
X131600380Y-110364819D02*
X131743237Y-110317200D01*
X131743237Y-110317200D02*
X131838475Y-110221961D01*
X131838475Y-110221961D02*
X131886094Y-110126723D01*
X131886094Y-110126723D02*
X131933713Y-109936247D01*
X131933713Y-109936247D02*
X131933713Y-109793390D01*
X131933713Y-109793390D02*
X131886094Y-109602914D01*
X131886094Y-109602914D02*
X131838475Y-109507676D01*
X131838475Y-109507676D02*
X131743237Y-109412438D01*
X131743237Y-109412438D02*
X131600380Y-109364819D01*
X131600380Y-109364819D02*
X131505142Y-109364819D01*
X131505142Y-109364819D02*
X131362285Y-109412438D01*
X131362285Y-109412438D02*
X131314666Y-109460057D01*
X130743237Y-109793390D02*
X130838475Y-109745771D01*
X130838475Y-109745771D02*
X130886094Y-109698152D01*
X130886094Y-109698152D02*
X130933713Y-109602914D01*
X130933713Y-109602914D02*
X130933713Y-109555295D01*
X130933713Y-109555295D02*
X130886094Y-109460057D01*
X130886094Y-109460057D02*
X130838475Y-109412438D01*
X130838475Y-109412438D02*
X130743237Y-109364819D01*
X130743237Y-109364819D02*
X130552761Y-109364819D01*
X130552761Y-109364819D02*
X130457523Y-109412438D01*
X130457523Y-109412438D02*
X130409904Y-109460057D01*
X130409904Y-109460057D02*
X130362285Y-109555295D01*
X130362285Y-109555295D02*
X130362285Y-109602914D01*
X130362285Y-109602914D02*
X130409904Y-109698152D01*
X130409904Y-109698152D02*
X130457523Y-109745771D01*
X130457523Y-109745771D02*
X130552761Y-109793390D01*
X130552761Y-109793390D02*
X130743237Y-109793390D01*
X130743237Y-109793390D02*
X130838475Y-109841009D01*
X130838475Y-109841009D02*
X130886094Y-109888628D01*
X130886094Y-109888628D02*
X130933713Y-109983866D01*
X130933713Y-109983866D02*
X130933713Y-110174342D01*
X130933713Y-110174342D02*
X130886094Y-110269580D01*
X130886094Y-110269580D02*
X130838475Y-110317200D01*
X130838475Y-110317200D02*
X130743237Y-110364819D01*
X130743237Y-110364819D02*
X130552761Y-110364819D01*
X130552761Y-110364819D02*
X130457523Y-110317200D01*
X130457523Y-110317200D02*
X130409904Y-110269580D01*
X130409904Y-110269580D02*
X130362285Y-110174342D01*
X130362285Y-110174342D02*
X130362285Y-109983866D01*
X130362285Y-109983866D02*
X130409904Y-109888628D01*
X130409904Y-109888628D02*
X130457523Y-109841009D01*
X130457523Y-109841009D02*
X130552761Y-109793390D01*
D11*
X136777619Y-85674318D02*
X136777619Y-86702413D01*
X136777619Y-86702413D02*
X136717142Y-86823365D01*
X136717142Y-86823365D02*
X136656666Y-86883842D01*
X136656666Y-86883842D02*
X136535714Y-86944318D01*
X136535714Y-86944318D02*
X136293809Y-86944318D01*
X136293809Y-86944318D02*
X136172857Y-86883842D01*
X136172857Y-86883842D02*
X136112380Y-86823365D01*
X136112380Y-86823365D02*
X136051904Y-86702413D01*
X136051904Y-86702413D02*
X136051904Y-85674318D01*
X135568095Y-85674318D02*
X134781904Y-85674318D01*
X134781904Y-85674318D02*
X135205238Y-86158127D01*
X135205238Y-86158127D02*
X135023809Y-86158127D01*
X135023809Y-86158127D02*
X134902857Y-86218603D01*
X134902857Y-86218603D02*
X134842381Y-86279080D01*
X134842381Y-86279080D02*
X134781904Y-86400032D01*
X134781904Y-86400032D02*
X134781904Y-86702413D01*
X134781904Y-86702413D02*
X134842381Y-86823365D01*
X134842381Y-86823365D02*
X134902857Y-86883842D01*
X134902857Y-86883842D02*
X135023809Y-86944318D01*
X135023809Y-86944318D02*
X135386666Y-86944318D01*
X135386666Y-86944318D02*
X135507619Y-86883842D01*
X135507619Y-86883842D02*
X135568095Y-86823365D01*
D10*
X162204916Y-90444819D02*
X162538249Y-89968628D01*
X162776344Y-90444819D02*
X162776344Y-89444819D01*
X162776344Y-89444819D02*
X162395392Y-89444819D01*
X162395392Y-89444819D02*
X162300154Y-89492438D01*
X162300154Y-89492438D02*
X162252535Y-89540057D01*
X162252535Y-89540057D02*
X162204916Y-89635295D01*
X162204916Y-89635295D02*
X162204916Y-89778152D01*
X162204916Y-89778152D02*
X162252535Y-89873390D01*
X162252535Y-89873390D02*
X162300154Y-89921009D01*
X162300154Y-89921009D02*
X162395392Y-89968628D01*
X162395392Y-89968628D02*
X162776344Y-89968628D01*
X161300154Y-89444819D02*
X161776344Y-89444819D01*
X161776344Y-89444819D02*
X161823963Y-89921009D01*
X161823963Y-89921009D02*
X161776344Y-89873390D01*
X161776344Y-89873390D02*
X161681106Y-89825771D01*
X161681106Y-89825771D02*
X161443011Y-89825771D01*
X161443011Y-89825771D02*
X161347773Y-89873390D01*
X161347773Y-89873390D02*
X161300154Y-89921009D01*
X161300154Y-89921009D02*
X161252535Y-90016247D01*
X161252535Y-90016247D02*
X161252535Y-90254342D01*
X161252535Y-90254342D02*
X161300154Y-90349580D01*
X161300154Y-90349580D02*
X161347773Y-90397200D01*
X161347773Y-90397200D02*
X161443011Y-90444819D01*
X161443011Y-90444819D02*
X161681106Y-90444819D01*
X161681106Y-90444819D02*
X161776344Y-90397200D01*
X161776344Y-90397200D02*
X161823963Y-90349580D01*
X162752857Y-51934819D02*
X163086190Y-51458628D01*
X163324285Y-51934819D02*
X163324285Y-50934819D01*
X163324285Y-50934819D02*
X162943333Y-50934819D01*
X162943333Y-50934819D02*
X162848095Y-50982438D01*
X162848095Y-50982438D02*
X162800476Y-51030057D01*
X162800476Y-51030057D02*
X162752857Y-51125295D01*
X162752857Y-51125295D02*
X162752857Y-51268152D01*
X162752857Y-51268152D02*
X162800476Y-51363390D01*
X162800476Y-51363390D02*
X162848095Y-51411009D01*
X162848095Y-51411009D02*
X162943333Y-51458628D01*
X162943333Y-51458628D02*
X163324285Y-51458628D01*
X162419523Y-50934819D02*
X161800476Y-50934819D01*
X161800476Y-50934819D02*
X162133809Y-51315771D01*
X162133809Y-51315771D02*
X161990952Y-51315771D01*
X161990952Y-51315771D02*
X161895714Y-51363390D01*
X161895714Y-51363390D02*
X161848095Y-51411009D01*
X161848095Y-51411009D02*
X161800476Y-51506247D01*
X161800476Y-51506247D02*
X161800476Y-51744342D01*
X161800476Y-51744342D02*
X161848095Y-51839580D01*
X161848095Y-51839580D02*
X161895714Y-51887200D01*
X161895714Y-51887200D02*
X161990952Y-51934819D01*
X161990952Y-51934819D02*
X162276666Y-51934819D01*
X162276666Y-51934819D02*
X162371904Y-51887200D01*
X162371904Y-51887200D02*
X162419523Y-51839580D01*
X160943333Y-51268152D02*
X160943333Y-51934819D01*
X161181428Y-50887200D02*
X161419523Y-51601485D01*
X161419523Y-51601485D02*
X160800476Y-51601485D01*
X131819580Y-84017142D02*
X131867200Y-83969523D01*
X131867200Y-83969523D02*
X131914819Y-83826666D01*
X131914819Y-83826666D02*
X131914819Y-83731428D01*
X131914819Y-83731428D02*
X131867200Y-83588571D01*
X131867200Y-83588571D02*
X131771961Y-83493333D01*
X131771961Y-83493333D02*
X131676723Y-83445714D01*
X131676723Y-83445714D02*
X131486247Y-83398095D01*
X131486247Y-83398095D02*
X131343390Y-83398095D01*
X131343390Y-83398095D02*
X131152914Y-83445714D01*
X131152914Y-83445714D02*
X131057676Y-83493333D01*
X131057676Y-83493333D02*
X130962438Y-83588571D01*
X130962438Y-83588571D02*
X130914819Y-83731428D01*
X130914819Y-83731428D02*
X130914819Y-83826666D01*
X130914819Y-83826666D02*
X130962438Y-83969523D01*
X130962438Y-83969523D02*
X131010057Y-84017142D01*
X131914819Y-84969523D02*
X131914819Y-84398095D01*
X131914819Y-84683809D02*
X130914819Y-84683809D01*
X130914819Y-84683809D02*
X131057676Y-84588571D01*
X131057676Y-84588571D02*
X131152914Y-84493333D01*
X131152914Y-84493333D02*
X131200533Y-84398095D01*
X131914819Y-85445714D02*
X131914819Y-85636190D01*
X131914819Y-85636190D02*
X131867200Y-85731428D01*
X131867200Y-85731428D02*
X131819580Y-85779047D01*
X131819580Y-85779047D02*
X131676723Y-85874285D01*
X131676723Y-85874285D02*
X131486247Y-85921904D01*
X131486247Y-85921904D02*
X131105295Y-85921904D01*
X131105295Y-85921904D02*
X131010057Y-85874285D01*
X131010057Y-85874285D02*
X130962438Y-85826666D01*
X130962438Y-85826666D02*
X130914819Y-85731428D01*
X130914819Y-85731428D02*
X130914819Y-85540952D01*
X130914819Y-85540952D02*
X130962438Y-85445714D01*
X130962438Y-85445714D02*
X131010057Y-85398095D01*
X131010057Y-85398095D02*
X131105295Y-85350476D01*
X131105295Y-85350476D02*
X131343390Y-85350476D01*
X131343390Y-85350476D02*
X131438628Y-85398095D01*
X131438628Y-85398095D02*
X131486247Y-85445714D01*
X131486247Y-85445714D02*
X131533866Y-85540952D01*
X131533866Y-85540952D02*
X131533866Y-85731428D01*
X131533866Y-85731428D02*
X131486247Y-85826666D01*
X131486247Y-85826666D02*
X131438628Y-85874285D01*
X131438628Y-85874285D02*
X131343390Y-85921904D01*
X148656437Y-110160580D02*
X148704056Y-110208200D01*
X148704056Y-110208200D02*
X148846913Y-110255819D01*
X148846913Y-110255819D02*
X148942151Y-110255819D01*
X148942151Y-110255819D02*
X149085008Y-110208200D01*
X149085008Y-110208200D02*
X149180246Y-110112961D01*
X149180246Y-110112961D02*
X149227865Y-110017723D01*
X149227865Y-110017723D02*
X149275484Y-109827247D01*
X149275484Y-109827247D02*
X149275484Y-109684390D01*
X149275484Y-109684390D02*
X149227865Y-109493914D01*
X149227865Y-109493914D02*
X149180246Y-109398676D01*
X149180246Y-109398676D02*
X149085008Y-109303438D01*
X149085008Y-109303438D02*
X148942151Y-109255819D01*
X148942151Y-109255819D02*
X148846913Y-109255819D01*
X148846913Y-109255819D02*
X148704056Y-109303438D01*
X148704056Y-109303438D02*
X148656437Y-109351057D01*
X147704056Y-110255819D02*
X148275484Y-110255819D01*
X147989770Y-110255819D02*
X147989770Y-109255819D01*
X147989770Y-109255819D02*
X148085008Y-109398676D01*
X148085008Y-109398676D02*
X148180246Y-109493914D01*
X148180246Y-109493914D02*
X148275484Y-109541533D01*
X147370722Y-109255819D02*
X146751675Y-109255819D01*
X146751675Y-109255819D02*
X147085008Y-109636771D01*
X147085008Y-109636771D02*
X146942151Y-109636771D01*
X146942151Y-109636771D02*
X146846913Y-109684390D01*
X146846913Y-109684390D02*
X146799294Y-109732009D01*
X146799294Y-109732009D02*
X146751675Y-109827247D01*
X146751675Y-109827247D02*
X146751675Y-110065342D01*
X146751675Y-110065342D02*
X146799294Y-110160580D01*
X146799294Y-110160580D02*
X146846913Y-110208200D01*
X146846913Y-110208200D02*
X146942151Y-110255819D01*
X146942151Y-110255819D02*
X147227865Y-110255819D01*
X147227865Y-110255819D02*
X147323103Y-110208200D01*
X147323103Y-110208200D02*
X147370722Y-110160580D01*
X137509580Y-97723333D02*
X137557200Y-97675714D01*
X137557200Y-97675714D02*
X137604819Y-97532857D01*
X137604819Y-97532857D02*
X137604819Y-97437619D01*
X137604819Y-97437619D02*
X137557200Y-97294762D01*
X137557200Y-97294762D02*
X137461961Y-97199524D01*
X137461961Y-97199524D02*
X137366723Y-97151905D01*
X137366723Y-97151905D02*
X137176247Y-97104286D01*
X137176247Y-97104286D02*
X137033390Y-97104286D01*
X137033390Y-97104286D02*
X136842914Y-97151905D01*
X136842914Y-97151905D02*
X136747676Y-97199524D01*
X136747676Y-97199524D02*
X136652438Y-97294762D01*
X136652438Y-97294762D02*
X136604819Y-97437619D01*
X136604819Y-97437619D02*
X136604819Y-97532857D01*
X136604819Y-97532857D02*
X136652438Y-97675714D01*
X136652438Y-97675714D02*
X136700057Y-97723333D01*
X136604819Y-98056667D02*
X136604819Y-98723333D01*
X136604819Y-98723333D02*
X137604819Y-98294762D01*
X133969580Y-114003333D02*
X134017200Y-113955714D01*
X134017200Y-113955714D02*
X134064819Y-113812857D01*
X134064819Y-113812857D02*
X134064819Y-113717619D01*
X134064819Y-113717619D02*
X134017200Y-113574762D01*
X134017200Y-113574762D02*
X133921961Y-113479524D01*
X133921961Y-113479524D02*
X133826723Y-113431905D01*
X133826723Y-113431905D02*
X133636247Y-113384286D01*
X133636247Y-113384286D02*
X133493390Y-113384286D01*
X133493390Y-113384286D02*
X133302914Y-113431905D01*
X133302914Y-113431905D02*
X133207676Y-113479524D01*
X133207676Y-113479524D02*
X133112438Y-113574762D01*
X133112438Y-113574762D02*
X133064819Y-113717619D01*
X133064819Y-113717619D02*
X133064819Y-113812857D01*
X133064819Y-113812857D02*
X133112438Y-113955714D01*
X133112438Y-113955714D02*
X133160057Y-114003333D01*
X134064819Y-114479524D02*
X134064819Y-114670000D01*
X134064819Y-114670000D02*
X134017200Y-114765238D01*
X134017200Y-114765238D02*
X133969580Y-114812857D01*
X133969580Y-114812857D02*
X133826723Y-114908095D01*
X133826723Y-114908095D02*
X133636247Y-114955714D01*
X133636247Y-114955714D02*
X133255295Y-114955714D01*
X133255295Y-114955714D02*
X133160057Y-114908095D01*
X133160057Y-114908095D02*
X133112438Y-114860476D01*
X133112438Y-114860476D02*
X133064819Y-114765238D01*
X133064819Y-114765238D02*
X133064819Y-114574762D01*
X133064819Y-114574762D02*
X133112438Y-114479524D01*
X133112438Y-114479524D02*
X133160057Y-114431905D01*
X133160057Y-114431905D02*
X133255295Y-114384286D01*
X133255295Y-114384286D02*
X133493390Y-114384286D01*
X133493390Y-114384286D02*
X133588628Y-114431905D01*
X133588628Y-114431905D02*
X133636247Y-114479524D01*
X133636247Y-114479524D02*
X133683866Y-114574762D01*
X133683866Y-114574762D02*
X133683866Y-114765238D01*
X133683866Y-114765238D02*
X133636247Y-114860476D01*
X133636247Y-114860476D02*
X133588628Y-114908095D01*
X133588628Y-114908095D02*
X133493390Y-114955714D01*
X143989580Y-113617142D02*
X144037200Y-113569523D01*
X144037200Y-113569523D02*
X144084819Y-113426666D01*
X144084819Y-113426666D02*
X144084819Y-113331428D01*
X144084819Y-113331428D02*
X144037200Y-113188571D01*
X144037200Y-113188571D02*
X143941961Y-113093333D01*
X143941961Y-113093333D02*
X143846723Y-113045714D01*
X143846723Y-113045714D02*
X143656247Y-112998095D01*
X143656247Y-112998095D02*
X143513390Y-112998095D01*
X143513390Y-112998095D02*
X143322914Y-113045714D01*
X143322914Y-113045714D02*
X143227676Y-113093333D01*
X143227676Y-113093333D02*
X143132438Y-113188571D01*
X143132438Y-113188571D02*
X143084819Y-113331428D01*
X143084819Y-113331428D02*
X143084819Y-113426666D01*
X143084819Y-113426666D02*
X143132438Y-113569523D01*
X143132438Y-113569523D02*
X143180057Y-113617142D01*
X143180057Y-113998095D02*
X143132438Y-114045714D01*
X143132438Y-114045714D02*
X143084819Y-114140952D01*
X143084819Y-114140952D02*
X143084819Y-114379047D01*
X143084819Y-114379047D02*
X143132438Y-114474285D01*
X143132438Y-114474285D02*
X143180057Y-114521904D01*
X143180057Y-114521904D02*
X143275295Y-114569523D01*
X143275295Y-114569523D02*
X143370533Y-114569523D01*
X143370533Y-114569523D02*
X143513390Y-114521904D01*
X143513390Y-114521904D02*
X144084819Y-113950476D01*
X144084819Y-113950476D02*
X144084819Y-114569523D01*
X143418152Y-115426666D02*
X144084819Y-115426666D01*
X143037200Y-115188571D02*
X143751485Y-114950476D01*
X143751485Y-114950476D02*
X143751485Y-115569523D01*
X116504819Y-131805142D02*
X116028628Y-131471809D01*
X116504819Y-131233714D02*
X115504819Y-131233714D01*
X115504819Y-131233714D02*
X115504819Y-131614666D01*
X115504819Y-131614666D02*
X115552438Y-131709904D01*
X115552438Y-131709904D02*
X115600057Y-131757523D01*
X115600057Y-131757523D02*
X115695295Y-131805142D01*
X115695295Y-131805142D02*
X115838152Y-131805142D01*
X115838152Y-131805142D02*
X115933390Y-131757523D01*
X115933390Y-131757523D02*
X115981009Y-131709904D01*
X115981009Y-131709904D02*
X116028628Y-131614666D01*
X116028628Y-131614666D02*
X116028628Y-131233714D01*
X116504819Y-132757523D02*
X116504819Y-132186095D01*
X116504819Y-132471809D02*
X115504819Y-132471809D01*
X115504819Y-132471809D02*
X115647676Y-132376571D01*
X115647676Y-132376571D02*
X115742914Y-132281333D01*
X115742914Y-132281333D02*
X115790533Y-132186095D01*
X116504819Y-133709904D02*
X116504819Y-133138476D01*
X116504819Y-133424190D02*
X115504819Y-133424190D01*
X115504819Y-133424190D02*
X115647676Y-133328952D01*
X115647676Y-133328952D02*
X115742914Y-133233714D01*
X115742914Y-133233714D02*
X115790533Y-133138476D01*
X131344666Y-106879580D02*
X131392285Y-106927200D01*
X131392285Y-106927200D02*
X131535142Y-106974819D01*
X131535142Y-106974819D02*
X131630380Y-106974819D01*
X131630380Y-106974819D02*
X131773237Y-106927200D01*
X131773237Y-106927200D02*
X131868475Y-106831961D01*
X131868475Y-106831961D02*
X131916094Y-106736723D01*
X131916094Y-106736723D02*
X131963713Y-106546247D01*
X131963713Y-106546247D02*
X131963713Y-106403390D01*
X131963713Y-106403390D02*
X131916094Y-106212914D01*
X131916094Y-106212914D02*
X131868475Y-106117676D01*
X131868475Y-106117676D02*
X131773237Y-106022438D01*
X131773237Y-106022438D02*
X131630380Y-105974819D01*
X131630380Y-105974819D02*
X131535142Y-105974819D01*
X131535142Y-105974819D02*
X131392285Y-106022438D01*
X131392285Y-106022438D02*
X131344666Y-106070057D01*
X130487523Y-105974819D02*
X130677999Y-105974819D01*
X130677999Y-105974819D02*
X130773237Y-106022438D01*
X130773237Y-106022438D02*
X130820856Y-106070057D01*
X130820856Y-106070057D02*
X130916094Y-106212914D01*
X130916094Y-106212914D02*
X130963713Y-106403390D01*
X130963713Y-106403390D02*
X130963713Y-106784342D01*
X130963713Y-106784342D02*
X130916094Y-106879580D01*
X130916094Y-106879580D02*
X130868475Y-106927200D01*
X130868475Y-106927200D02*
X130773237Y-106974819D01*
X130773237Y-106974819D02*
X130582761Y-106974819D01*
X130582761Y-106974819D02*
X130487523Y-106927200D01*
X130487523Y-106927200D02*
X130439904Y-106879580D01*
X130439904Y-106879580D02*
X130392285Y-106784342D01*
X130392285Y-106784342D02*
X130392285Y-106546247D01*
X130392285Y-106546247D02*
X130439904Y-106451009D01*
X130439904Y-106451009D02*
X130487523Y-106403390D01*
X130487523Y-106403390D02*
X130582761Y-106355771D01*
X130582761Y-106355771D02*
X130773237Y-106355771D01*
X130773237Y-106355771D02*
X130868475Y-106403390D01*
X130868475Y-106403390D02*
X130916094Y-106451009D01*
X130916094Y-106451009D02*
X130963713Y-106546247D01*
X148742857Y-103159580D02*
X148790476Y-103207200D01*
X148790476Y-103207200D02*
X148933333Y-103254819D01*
X148933333Y-103254819D02*
X149028571Y-103254819D01*
X149028571Y-103254819D02*
X149171428Y-103207200D01*
X149171428Y-103207200D02*
X149266666Y-103111961D01*
X149266666Y-103111961D02*
X149314285Y-103016723D01*
X149314285Y-103016723D02*
X149361904Y-102826247D01*
X149361904Y-102826247D02*
X149361904Y-102683390D01*
X149361904Y-102683390D02*
X149314285Y-102492914D01*
X149314285Y-102492914D02*
X149266666Y-102397676D01*
X149266666Y-102397676D02*
X149171428Y-102302438D01*
X149171428Y-102302438D02*
X149028571Y-102254819D01*
X149028571Y-102254819D02*
X148933333Y-102254819D01*
X148933333Y-102254819D02*
X148790476Y-102302438D01*
X148790476Y-102302438D02*
X148742857Y-102350057D01*
X147790476Y-103254819D02*
X148361904Y-103254819D01*
X148076190Y-103254819D02*
X148076190Y-102254819D01*
X148076190Y-102254819D02*
X148171428Y-102397676D01*
X148171428Y-102397676D02*
X148266666Y-102492914D01*
X148266666Y-102492914D02*
X148361904Y-102540533D01*
X146885714Y-102254819D02*
X147361904Y-102254819D01*
X147361904Y-102254819D02*
X147409523Y-102731009D01*
X147409523Y-102731009D02*
X147361904Y-102683390D01*
X147361904Y-102683390D02*
X147266666Y-102635771D01*
X147266666Y-102635771D02*
X147028571Y-102635771D01*
X147028571Y-102635771D02*
X146933333Y-102683390D01*
X146933333Y-102683390D02*
X146885714Y-102731009D01*
X146885714Y-102731009D02*
X146838095Y-102826247D01*
X146838095Y-102826247D02*
X146838095Y-103064342D01*
X146838095Y-103064342D02*
X146885714Y-103159580D01*
X146885714Y-103159580D02*
X146933333Y-103207200D01*
X146933333Y-103207200D02*
X147028571Y-103254819D01*
X147028571Y-103254819D02*
X147266666Y-103254819D01*
X147266666Y-103254819D02*
X147361904Y-103207200D01*
X147361904Y-103207200D02*
X147409523Y-103159580D01*
X148687857Y-106746580D02*
X148735476Y-106794200D01*
X148735476Y-106794200D02*
X148878333Y-106841819D01*
X148878333Y-106841819D02*
X148973571Y-106841819D01*
X148973571Y-106841819D02*
X149116428Y-106794200D01*
X149116428Y-106794200D02*
X149211666Y-106698961D01*
X149211666Y-106698961D02*
X149259285Y-106603723D01*
X149259285Y-106603723D02*
X149306904Y-106413247D01*
X149306904Y-106413247D02*
X149306904Y-106270390D01*
X149306904Y-106270390D02*
X149259285Y-106079914D01*
X149259285Y-106079914D02*
X149211666Y-105984676D01*
X149211666Y-105984676D02*
X149116428Y-105889438D01*
X149116428Y-105889438D02*
X148973571Y-105841819D01*
X148973571Y-105841819D02*
X148878333Y-105841819D01*
X148878333Y-105841819D02*
X148735476Y-105889438D01*
X148735476Y-105889438D02*
X148687857Y-105937057D01*
X147735476Y-106841819D02*
X148306904Y-106841819D01*
X148021190Y-106841819D02*
X148021190Y-105841819D01*
X148021190Y-105841819D02*
X148116428Y-105984676D01*
X148116428Y-105984676D02*
X148211666Y-106079914D01*
X148211666Y-106079914D02*
X148306904Y-106127533D01*
X146878333Y-106175152D02*
X146878333Y-106841819D01*
X147116428Y-105794200D02*
X147354523Y-106508485D01*
X147354523Y-106508485D02*
X146735476Y-106508485D01*
X166972857Y-52969580D02*
X167020476Y-53017200D01*
X167020476Y-53017200D02*
X167163333Y-53064819D01*
X167163333Y-53064819D02*
X167258571Y-53064819D01*
X167258571Y-53064819D02*
X167401428Y-53017200D01*
X167401428Y-53017200D02*
X167496666Y-52921961D01*
X167496666Y-52921961D02*
X167544285Y-52826723D01*
X167544285Y-52826723D02*
X167591904Y-52636247D01*
X167591904Y-52636247D02*
X167591904Y-52493390D01*
X167591904Y-52493390D02*
X167544285Y-52302914D01*
X167544285Y-52302914D02*
X167496666Y-52207676D01*
X167496666Y-52207676D02*
X167401428Y-52112438D01*
X167401428Y-52112438D02*
X167258571Y-52064819D01*
X167258571Y-52064819D02*
X167163333Y-52064819D01*
X167163333Y-52064819D02*
X167020476Y-52112438D01*
X167020476Y-52112438D02*
X166972857Y-52160057D01*
X166591904Y-52160057D02*
X166544285Y-52112438D01*
X166544285Y-52112438D02*
X166449047Y-52064819D01*
X166449047Y-52064819D02*
X166210952Y-52064819D01*
X166210952Y-52064819D02*
X166115714Y-52112438D01*
X166115714Y-52112438D02*
X166068095Y-52160057D01*
X166068095Y-52160057D02*
X166020476Y-52255295D01*
X166020476Y-52255295D02*
X166020476Y-52350533D01*
X166020476Y-52350533D02*
X166068095Y-52493390D01*
X166068095Y-52493390D02*
X166639523Y-53064819D01*
X166639523Y-53064819D02*
X166020476Y-53064819D01*
X165068095Y-53064819D02*
X165639523Y-53064819D01*
X165353809Y-53064819D02*
X165353809Y-52064819D01*
X165353809Y-52064819D02*
X165449047Y-52207676D01*
X165449047Y-52207676D02*
X165544285Y-52302914D01*
X165544285Y-52302914D02*
X165639523Y-52350533D01*
X137209580Y-113387142D02*
X137257200Y-113339523D01*
X137257200Y-113339523D02*
X137304819Y-113196666D01*
X137304819Y-113196666D02*
X137304819Y-113101428D01*
X137304819Y-113101428D02*
X137257200Y-112958571D01*
X137257200Y-112958571D02*
X137161961Y-112863333D01*
X137161961Y-112863333D02*
X137066723Y-112815714D01*
X137066723Y-112815714D02*
X136876247Y-112768095D01*
X136876247Y-112768095D02*
X136733390Y-112768095D01*
X136733390Y-112768095D02*
X136542914Y-112815714D01*
X136542914Y-112815714D02*
X136447676Y-112863333D01*
X136447676Y-112863333D02*
X136352438Y-112958571D01*
X136352438Y-112958571D02*
X136304819Y-113101428D01*
X136304819Y-113101428D02*
X136304819Y-113196666D01*
X136304819Y-113196666D02*
X136352438Y-113339523D01*
X136352438Y-113339523D02*
X136400057Y-113387142D01*
X137304819Y-114339523D02*
X137304819Y-113768095D01*
X137304819Y-114053809D02*
X136304819Y-114053809D01*
X136304819Y-114053809D02*
X136447676Y-113958571D01*
X136447676Y-113958571D02*
X136542914Y-113863333D01*
X136542914Y-113863333D02*
X136590533Y-113768095D01*
X137304819Y-115291904D02*
X137304819Y-114720476D01*
X137304819Y-115006190D02*
X136304819Y-115006190D01*
X136304819Y-115006190D02*
X136447676Y-114910952D01*
X136447676Y-114910952D02*
X136542914Y-114815714D01*
X136542914Y-114815714D02*
X136590533Y-114720476D01*
D12*
%TO.C,C5*%
X131350580Y-105260000D02*
X131069420Y-105260000D01*
X131350580Y-104240000D02*
X131069420Y-104240000D01*
%TO.C,C16*%
X144600000Y-98310580D02*
X144600000Y-98029420D01*
X145620000Y-98310580D02*
X145620000Y-98029420D01*
%TO.C,C4*%
X131338580Y-101200000D02*
X131057420Y-101200000D01*
X131338580Y-100180000D02*
X131057420Y-100180000D01*
%TO.C,C17*%
X141440000Y-98210580D02*
X141440000Y-97929420D01*
X142460000Y-98210580D02*
X142460000Y-97929420D01*
%TO.C,C12*%
X148059420Y-110720000D02*
X148340580Y-110720000D01*
X148059420Y-111740000D02*
X148340580Y-111740000D01*
%TO.C,C18*%
X138170000Y-98260580D02*
X138170000Y-97979420D01*
X139190000Y-98260580D02*
X139190000Y-97979420D01*
%TO.C,C20*%
X132380000Y-92344420D02*
X132380000Y-92625580D01*
X131360000Y-92344420D02*
X131360000Y-92625580D01*
%TO.C,C10*%
X142160000Y-114119420D02*
X142160000Y-114400580D01*
X141140000Y-114119420D02*
X141140000Y-114400580D01*
D13*
%TO.C,U4*%
X165695000Y-55470000D02*
G75*
G03*
X165695000Y-55470000I-125000J0D01*
G01*
D12*
%TO.C,R12*%
X114492500Y-132189742D02*
X114492500Y-132664258D01*
X113447500Y-132189742D02*
X113447500Y-132664258D01*
%TO.C,R6*%
X121692500Y-132200742D02*
X121692500Y-132675258D01*
X120647500Y-132200742D02*
X120647500Y-132675258D01*
%TO.C,C8*%
X131288580Y-111850000D02*
X131007420Y-111850000D01*
X131288580Y-110830000D02*
X131007420Y-110830000D01*
D13*
%TO.C,U3*%
X134355000Y-87060000D02*
G75*
G03*
X134355000Y-87060000I-125000J0D01*
G01*
D12*
%TO.C,R5*%
X161800992Y-88037500D02*
X162275508Y-88037500D01*
X161800992Y-89082500D02*
X162275508Y-89082500D01*
%TO.C,R34*%
X162347258Y-53432500D02*
X161872742Y-53432500D01*
X162347258Y-52387500D02*
X161872742Y-52387500D01*
%TO.C,C19*%
X129520000Y-84800580D02*
X129520000Y-84519420D01*
X130540000Y-84800580D02*
X130540000Y-84519420D01*
%TO.C,C13*%
X147932420Y-107291000D02*
X148213580Y-107291000D01*
X147932420Y-108311000D02*
X148213580Y-108311000D01*
%TO.C,C7*%
X135210000Y-98030580D02*
X135210000Y-97749420D01*
X136230000Y-98030580D02*
X136230000Y-97749420D01*
%TO.C,C9*%
X135550000Y-114029420D02*
X135550000Y-114310580D01*
X134530000Y-114029420D02*
X134530000Y-114310580D01*
%TO.C,C24*%
X145570000Y-114119420D02*
X145570000Y-114400580D01*
X144550000Y-114119420D02*
X144550000Y-114400580D01*
%TO.C,R11*%
X118002500Y-132210742D02*
X118002500Y-132685258D01*
X116957500Y-132210742D02*
X116957500Y-132685258D01*
%TO.C,C6*%
X131318580Y-108460000D02*
X131037420Y-108460000D01*
X131318580Y-107440000D02*
X131037420Y-107440000D01*
%TO.C,C15*%
X147959420Y-100860000D02*
X148240580Y-100860000D01*
X147959420Y-101880000D02*
X148240580Y-101880000D01*
%TO.C,C14*%
X147904420Y-104447000D02*
X148185580Y-104447000D01*
X147904420Y-105467000D02*
X148185580Y-105467000D01*
%TO.C,C21*%
X166179420Y-53520000D02*
X166460580Y-53520000D01*
X166179420Y-54540000D02*
X166460580Y-54540000D01*
%TO.C,C11*%
X138870000Y-113819420D02*
X138870000Y-114100580D01*
X137850000Y-113819420D02*
X137850000Y-114100580D01*
%TD*%
M02*
