%TF.GenerationSoftware,KiCad,Pcbnew,7.0.6-7.0.6~ubuntu20.04.1*%
%TF.CreationDate,2023-11-11T07:41:58+07:00*%
%TF.ProjectId,qpix,71706978-2e6b-4696-9361-645f70636258,rev?*%
%TF.SameCoordinates,Original*%
%TF.FileFunction,Paste,Top*%
%TF.FilePolarity,Positive*%
%FSLAX46Y46*%
G04 Gerber Fmt 4.6, Leading zero omitted, Abs format (unit mm)*
G04 Created by KiCad (PCBNEW 7.0.6-7.0.6~ubuntu20.04.1) date 2023-11-11 07:41:58*
%MOMM*%
%LPD*%
G01*
G04 APERTURE LIST*
G04 Aperture macros list*
%AMRoundRect*
0 Rectangle with rounded corners*
0 $1 Rounding radius*
0 $2 $3 $4 $5 $6 $7 $8 $9 X,Y pos of 4 corners*
0 Add a 4 corners polygon primitive as box body*
4,1,4,$2,$3,$4,$5,$6,$7,$8,$9,$2,$3,0*
0 Add four circle primitives for the rounded corners*
1,1,$1+$1,$2,$3*
1,1,$1+$1,$4,$5*
1,1,$1+$1,$6,$7*
1,1,$1+$1,$8,$9*
0 Add four rect primitives between the rounded corners*
20,1,$1+$1,$2,$3,$4,$5,0*
20,1,$1+$1,$4,$5,$6,$7,0*
20,1,$1+$1,$6,$7,$8,$9,0*
20,1,$1+$1,$8,$9,$2,$3,0*%
%AMRotRect*
0 Rectangle, with rotation*
0 The origin of the aperture is its center*
0 $1 length*
0 $2 width*
0 $3 Rotation angle, in degrees counterclockwise*
0 Add horizontal line*
21,1,$1,$2,0,0,$3*%
G04 Aperture macros list end*
%ADD10RoundRect,0.200000X-0.200000X-0.275000X0.200000X-0.275000X0.200000X0.275000X-0.200000X0.275000X0*%
%ADD11RoundRect,0.200000X0.275000X-0.200000X0.275000X0.200000X-0.275000X0.200000X-0.275000X-0.200000X0*%
%ADD12RotRect,0.500000X0.110000X322.173913*%
%ADD13RotRect,0.500000X0.110000X323.739130*%
%ADD14RotRect,0.500000X0.110000X325.304348*%
%ADD15RotRect,0.500000X0.110000X326.869565*%
%ADD16RotRect,0.500000X0.110000X328.434783*%
%ADD17RotRect,0.500000X0.110000X330.000000*%
%ADD18RotRect,0.500000X0.110000X331.565217*%
%ADD19RotRect,0.500000X0.110000X333.130435*%
%ADD20RotRect,0.500000X0.110000X334.695652*%
%ADD21RotRect,0.500000X0.110000X336.260870*%
%ADD22RotRect,0.500000X0.110000X337.826087*%
%ADD23RotRect,0.500000X0.110000X339.391304*%
%ADD24RotRect,0.500000X0.110000X340.956522*%
%ADD25RotRect,0.500000X0.110000X342.521739*%
%ADD26RotRect,0.500000X0.110000X344.086957*%
%ADD27RotRect,0.500000X0.110000X345.652174*%
%ADD28RotRect,0.500000X0.110000X347.217391*%
%ADD29RotRect,0.500000X0.110000X348.782609*%
%ADD30RotRect,0.500000X0.110000X350.347826*%
%ADD31RotRect,0.500000X0.110000X351.913043*%
%ADD32RotRect,0.500000X0.110000X353.478261*%
%ADD33RotRect,0.500000X0.110000X355.043478*%
%ADD34RotRect,0.500000X0.110000X356.608696*%
%ADD35RotRect,0.500000X0.110000X358.173913*%
%ADD36RotRect,0.500000X0.110000X359.739130*%
%ADD37RotRect,0.500000X0.110000X1.304348*%
%ADD38RotRect,0.500000X0.110000X2.869565*%
%ADD39RotRect,0.500000X0.110000X4.434783*%
%ADD40RotRect,0.500000X0.110000X6.000000*%
%ADD41RotRect,0.500000X0.110000X7.565217*%
%ADD42RotRect,0.500000X0.110000X9.130435*%
%ADD43RotRect,0.500000X0.110000X10.695652*%
%ADD44RotRect,0.500000X0.110000X12.260870*%
%ADD45RotRect,0.500000X0.110000X13.826087*%
%ADD46RotRect,0.500000X0.110000X15.391304*%
%ADD47RotRect,0.500000X0.110000X16.956522*%
%ADD48RotRect,0.500000X0.110000X18.521739*%
%ADD49RotRect,0.500000X0.110000X20.086957*%
%ADD50RotRect,0.500000X0.110000X21.652174*%
%ADD51RotRect,0.500000X0.110000X23.217391*%
%ADD52RotRect,0.500000X0.110000X24.782609*%
%ADD53RotRect,0.500000X0.110000X26.347826*%
%ADD54RotRect,0.500000X0.110000X27.913043*%
%ADD55RotRect,0.500000X0.110000X29.478261*%
%ADD56RotRect,0.500000X0.110000X31.043478*%
%ADD57RotRect,0.500000X0.110000X32.608696*%
%ADD58RotRect,0.500000X0.110000X34.173913*%
%ADD59RotRect,0.500000X0.110000X35.739130*%
%ADD60RotRect,0.500000X0.110000X67.406053*%
%ADD61RotRect,0.500000X0.110000X69.297453*%
%ADD62RotRect,0.500000X0.110000X73.222666*%
%ADD63RotRect,0.500000X0.110000X75.250450*%
%ADD64RotRect,0.500000X0.110000X81.546581*%
%ADD65RotRect,0.500000X0.110000X85.871161*%
%ADD66RotRect,0.500000X0.110000X270.243293*%
%ADD67RotRect,0.500000X0.110000X272.431481*%
%ADD68RotRect,0.500000X0.110000X274.612599*%
%ADD69RotRect,0.500000X0.110000X276.780407*%
%ADD70RotRect,0.500000X0.110000X278.928894*%
%ADD71RotRect,0.500000X0.110000X281.052372*%
%ADD72RotRect,0.500000X0.110000X285.203640*%
%ADD73RotRect,0.500000X0.110000X289.197879*%
%ADD74RotRect,0.500000X0.110000X293.007458*%
%ADD75RotRect,0.500000X0.110000X294.836824*%
%ADD76RotRect,0.500000X0.110000X324.260870*%
%ADD77RotRect,0.500000X0.110000X325.826087*%
%ADD78RotRect,0.500000X0.110000X328.956522*%
%ADD79RotRect,0.500000X0.110000X330.521739*%
%ADD80RotRect,0.500000X0.110000X332.086957*%
%ADD81RotRect,0.500000X0.110000X333.652174*%
%ADD82RotRect,0.500000X0.110000X335.217391*%
%ADD83RotRect,0.500000X0.110000X336.782609*%
%ADD84RotRect,0.500000X0.110000X339.913043*%
%ADD85RotRect,0.500000X0.110000X341.478261*%
%ADD86RotRect,0.500000X0.110000X343.043478*%
%ADD87RotRect,0.500000X0.110000X344.608696*%
%ADD88RotRect,0.500000X0.110000X346.173913*%
%ADD89RotRect,0.500000X0.110000X347.739130*%
%ADD90RotRect,0.500000X0.110000X349.304348*%
%ADD91RotRect,0.500000X0.110000X350.869565*%
%ADD92RotRect,0.500000X0.110000X352.434783*%
%ADD93RotRect,0.500000X0.110000X354.000000*%
%ADD94RotRect,0.500000X0.110000X355.565217*%
%ADD95RotRect,0.500000X0.110000X357.130435*%
%ADD96RotRect,0.500000X0.110000X358.695652*%
%ADD97RotRect,0.500000X0.110000X0.260870*%
%ADD98RotRect,0.500000X0.110000X1.826087*%
%ADD99RotRect,0.500000X0.110000X3.391304*%
%ADD100RotRect,0.500000X0.110000X4.956522*%
%ADD101RotRect,0.500000X0.110000X6.521739*%
%ADD102RotRect,0.500000X0.110000X8.086957*%
%ADD103RotRect,0.500000X0.110000X9.652174*%
%ADD104RotRect,0.500000X0.110000X11.217391*%
%ADD105RotRect,0.500000X0.110000X12.782609*%
%ADD106RotRect,0.500000X0.110000X14.347826*%
%ADD107RotRect,0.500000X0.110000X15.913043*%
%ADD108RotRect,0.500000X0.110000X19.043478*%
%ADD109RotRect,0.500000X0.110000X20.608696*%
%ADD110RotRect,0.500000X0.110000X23.739130*%
%ADD111RotRect,0.500000X0.110000X25.304348*%
%ADD112RotRect,0.500000X0.110000X28.434783*%
%ADD113RotRect,0.500000X0.110000X31.565217*%
%ADD114RotRect,0.500000X0.110000X34.695652*%
%ADD115RotRect,0.500000X0.110000X36.260870*%
%ADD116RotRect,0.500000X0.110000X63.386311*%
%ADD117RotRect,0.500000X0.110000X66.992542*%
%ADD118RotRect,0.500000X0.110000X70.802121*%
%ADD119RotRect,0.500000X0.110000X74.796360*%
%ADD120RotRect,0.500000X0.110000X76.854442*%
%ADD121RotRect,0.500000X0.110000X78.947628*%
%ADD122RotRect,0.500000X0.110000X81.071106*%
%ADD123RotRect,0.500000X0.110000X83.219593*%
%ADD124RotRect,0.500000X0.110000X87.568519*%
%ADD125RotRect,0.500000X0.110000X271.945605*%
%ADD126RotRect,0.500000X0.110000X276.300134*%
%ADD127RotRect,0.500000X0.110000X278.453419*%
%ADD128RotRect,0.500000X0.110000X280.582927*%
%ADD129RotRect,0.500000X0.110000X282.683278*%
%ADD130RotRect,0.500000X0.110000X284.749550*%
%ADD131RotRect,0.500000X0.110000X286.777334*%
%ADD132RotRect,0.500000X0.110000X288.762766*%
%ADD133RotRect,0.500000X0.110000X290.702547*%
%ADD134RotRect,0.500000X0.110000X292.593947*%
%ADD135RotRect,0.500000X0.110000X294.434789*%
%ADD136RoundRect,0.225000X0.225000X0.250000X-0.225000X0.250000X-0.225000X-0.250000X0.225000X-0.250000X0*%
%ADD137RoundRect,0.200000X0.200000X0.275000X-0.200000X0.275000X-0.200000X-0.275000X0.200000X-0.275000X0*%
%ADD138RoundRect,0.225000X0.250000X-0.225000X0.250000X0.225000X-0.250000X0.225000X-0.250000X-0.225000X0*%
%ADD139R,0.700000X0.450000*%
%ADD140RoundRect,0.225000X-0.250000X0.225000X-0.250000X-0.225000X0.250000X-0.225000X0.250000X0.225000X0*%
%ADD141RoundRect,0.079500X0.100500X-0.079500X0.100500X0.079500X-0.100500X0.079500X-0.100500X-0.079500X0*%
%ADD142RoundRect,0.150000X-0.512500X-0.150000X0.512500X-0.150000X0.512500X0.150000X-0.512500X0.150000X0*%
%ADD143RoundRect,0.200000X-0.275000X0.200000X-0.275000X-0.200000X0.275000X-0.200000X0.275000X0.200000X0*%
G04 APERTURE END LIST*
D10*
%TO.C,R44*%
X158420000Y-104042000D03*
X160070000Y-104042000D03*
%TD*%
%TO.C,R14*%
X148455000Y-129260000D03*
X150105000Y-129260000D03*
%TD*%
D11*
%TO.C,R26*%
X118445000Y-114324997D03*
X118445000Y-112674997D03*
%TD*%
D12*
%TO.C,U1*%
X134755232Y-99952694D03*
D13*
X134659784Y-100169158D03*
D14*
X134567826Y-100388182D03*
D15*
X134479427Y-100609669D03*
D16*
X134394652Y-100833522D03*
D17*
X134313565Y-101059641D03*
D18*
X134236226Y-101287924D03*
D19*
X134162693Y-101518268D03*
D20*
X134093021Y-101750567D03*
D21*
X134027262Y-101984717D03*
D22*
X133965465Y-102220610D03*
D23*
X133907676Y-102458135D03*
D24*
X133853939Y-102697185D03*
D25*
X133804292Y-102937646D03*
D26*
X133758774Y-103179408D03*
D27*
X133717419Y-103422356D03*
D28*
X133680256Y-103666377D03*
D29*
X133647314Y-103911355D03*
D30*
X133618618Y-104157175D03*
D31*
X133594189Y-104403721D03*
D32*
X133574045Y-104650876D03*
D33*
X133558201Y-104898522D03*
D34*
X133546669Y-105146543D03*
D35*
X133539457Y-105394819D03*
D36*
X133536572Y-105643234D03*
D37*
X133538015Y-105891668D03*
D38*
X133543785Y-106140003D03*
D39*
X133553877Y-106388122D03*
D40*
X133568285Y-106635906D03*
D41*
X133586997Y-106883238D03*
D42*
X133610000Y-107130000D03*
D43*
X133637276Y-107376075D03*
D44*
X133668805Y-107621347D03*
D45*
X133704564Y-107865699D03*
D46*
X133744525Y-108109018D03*
D47*
X133788659Y-108351187D03*
D48*
X133836933Y-108592095D03*
D49*
X133889312Y-108831627D03*
D50*
X133945755Y-109069673D03*
D51*
X134006221Y-109306122D03*
D52*
X134070664Y-109540865D03*
D53*
X134139038Y-109773793D03*
D54*
X134211289Y-110004801D03*
D55*
X134287366Y-110233782D03*
D56*
X134367210Y-110460634D03*
D57*
X134450762Y-110685253D03*
D58*
X134537961Y-110907540D03*
D59*
X134628740Y-111127396D03*
D60*
X137498165Y-113394496D03*
D61*
X137766117Y-113465125D03*
D62*
X138322324Y-113592757D03*
D63*
X138609865Y-113648519D03*
D64*
X139503881Y-113776628D03*
D65*
X140118915Y-113824588D03*
D66*
X140741140Y-113839589D03*
D67*
X141052575Y-113834419D03*
D68*
X141362937Y-113820856D03*
D69*
X141671286Y-113799075D03*
D70*
X141976722Y-113769355D03*
D71*
X142278408Y-113732065D03*
D72*
X142867565Y-113636640D03*
D73*
X143433736Y-113517095D03*
D74*
X143973448Y-113378274D03*
D75*
X144232717Y-113303186D03*
D76*
X146784284Y-111127396D03*
D77*
X146875063Y-110907540D03*
D78*
X147045814Y-110460634D03*
D79*
X147125658Y-110233782D03*
D80*
X147201735Y-110004801D03*
D81*
X147273986Y-109773793D03*
D82*
X147342360Y-109540865D03*
D83*
X147406803Y-109306122D03*
D84*
X147523712Y-108831627D03*
D85*
X147576091Y-108592095D03*
D86*
X147624365Y-108351187D03*
D87*
X147668499Y-108109018D03*
D88*
X147708460Y-107865699D03*
D89*
X147744219Y-107621347D03*
D90*
X147775748Y-107376075D03*
D91*
X147803024Y-107130000D03*
D92*
X147826027Y-106883238D03*
D93*
X147844739Y-106635906D03*
D94*
X147859147Y-106388122D03*
D95*
X147869239Y-106140003D03*
D96*
X147875009Y-105891668D03*
D97*
X147876452Y-105643234D03*
D98*
X147873567Y-105394819D03*
D99*
X147866355Y-105146543D03*
D100*
X147854823Y-104898522D03*
D101*
X147838979Y-104650876D03*
D102*
X147818835Y-104403721D03*
D103*
X147794406Y-104157175D03*
D104*
X147765710Y-103911355D03*
D105*
X147732768Y-103666377D03*
D106*
X147695605Y-103422356D03*
D107*
X147654250Y-103179408D03*
D108*
X147559085Y-102697185D03*
D109*
X147505348Y-102458135D03*
D110*
X147385762Y-101984717D03*
D111*
X147320003Y-101750567D03*
D112*
X147176798Y-101287924D03*
D113*
X147018372Y-100833522D03*
D114*
X146845198Y-100388182D03*
D115*
X146753240Y-100169158D03*
D116*
X144484754Y-98144167D03*
D117*
X143973448Y-97991008D03*
D118*
X143433736Y-97852187D03*
D119*
X142867565Y-97732642D03*
D120*
X142575581Y-97681627D03*
D121*
X142278408Y-97637217D03*
D122*
X141976722Y-97599927D03*
D123*
X141671286Y-97570207D03*
D124*
X141052575Y-97534863D03*
D125*
X140429598Y-97532985D03*
D126*
X139810040Y-97564669D03*
D127*
X139503881Y-97592654D03*
D128*
X139201293Y-97628298D03*
D129*
X138903055Y-97671169D03*
D130*
X138609865Y-97720763D03*
D131*
X138322324Y-97776525D03*
D132*
X138040939Y-97837862D03*
D133*
X137766117Y-97904157D03*
D134*
X137498165Y-97974786D03*
D135*
X137237300Y-98049132D03*
%TD*%
D10*
%TO.C,R43*%
X155418000Y-105693000D03*
X157068000Y-105693000D03*
%TD*%
D11*
%TO.C,R16*%
X118445000Y-92557142D03*
X118445000Y-90907142D03*
%TD*%
D136*
%TO.C,C3*%
X115125000Y-60350000D03*
X113575000Y-60350000D03*
%TD*%
D137*
%TO.C,R33*%
X142275000Y-117500000D03*
X140625000Y-117500000D03*
%TD*%
D10*
%TO.C,R45*%
X155418000Y-102423892D03*
X157068000Y-102423892D03*
%TD*%
D138*
%TO.C,C23*%
X152160000Y-132785000D03*
X152160000Y-131235000D03*
%TD*%
D139*
%TO.C,Q4*%
X169261833Y-106220000D03*
X169261833Y-107520000D03*
X171261833Y-106870000D03*
%TD*%
D10*
%TO.C,R8*%
X111997500Y-64500000D03*
X113647500Y-64500000D03*
%TD*%
%TO.C,R1*%
X148241835Y-83175000D03*
X149891835Y-83175000D03*
%TD*%
D11*
%TO.C,R20*%
X118445000Y-101264284D03*
X118445000Y-99614284D03*
%TD*%
%TO.C,R21*%
X115070000Y-103357142D03*
X115070000Y-101707142D03*
%TD*%
D10*
%TO.C,R39*%
X155418000Y-111535000D03*
X157068000Y-111535000D03*
%TD*%
%TO.C,R31*%
X135205000Y-118710000D03*
X136855000Y-118710000D03*
%TD*%
D140*
%TO.C,C1*%
X101602500Y-60390000D03*
X101602500Y-61940000D03*
%TD*%
D11*
%TO.C,R23*%
X115070000Y-107714284D03*
X115070000Y-106064284D03*
%TD*%
D10*
%TO.C,R4*%
X167675835Y-83225000D03*
X169325835Y-83225000D03*
%TD*%
D11*
%TO.C,R24*%
X118445000Y-109971426D03*
X118445000Y-108321426D03*
%TD*%
%TO.C,R7*%
X109542500Y-63965000D03*
X109542500Y-62315000D03*
%TD*%
D10*
%TO.C,R36*%
X158420000Y-116742000D03*
X160070000Y-116742000D03*
%TD*%
D11*
%TO.C,R30*%
X118445000Y-123032142D03*
X118445000Y-121382142D03*
%TD*%
D141*
%TO.C,D1*%
X173201833Y-125070000D03*
X173201833Y-124380000D03*
%TD*%
%TO.C,D3*%
X173201833Y-113685000D03*
X173201833Y-112995000D03*
%TD*%
D11*
%TO.C,R28*%
X118445000Y-118678568D03*
X118445000Y-117028568D03*
%TD*%
%TO.C,R17*%
X115070000Y-94642858D03*
X115070000Y-92992858D03*
%TD*%
D137*
%TO.C,R13*%
X165375000Y-65670000D03*
X163725000Y-65670000D03*
%TD*%
%TO.C,R32*%
X143580000Y-92190000D03*
X141930000Y-92190000D03*
%TD*%
D139*
%TO.C,Q2*%
X169261833Y-117887332D03*
X169261833Y-119187332D03*
X171261833Y-118537332D03*
%TD*%
D10*
%TO.C,R40*%
X158484000Y-110138000D03*
X160134000Y-110138000D03*
%TD*%
D137*
%TO.C,R68*%
X174906833Y-105330000D03*
X173256833Y-105330000D03*
%TD*%
D10*
%TO.C,R42*%
X158484000Y-107217000D03*
X160134000Y-107217000D03*
%TD*%
D11*
%TO.C,R25*%
X115070000Y-112071426D03*
X115070000Y-110421426D03*
%TD*%
D142*
%TO.C,U2*%
X104425000Y-60340000D03*
X104425000Y-61290000D03*
X104425000Y-62240000D03*
X106700000Y-62240000D03*
X106700000Y-60340000D03*
%TD*%
D11*
%TO.C,R22*%
X118445000Y-105617855D03*
X118445000Y-103967855D03*
%TD*%
D138*
%TO.C,C22*%
X151860000Y-138650000D03*
X151860000Y-137100000D03*
%TD*%
D136*
%TO.C,C2*%
X113585000Y-62220000D03*
X112035000Y-62220000D03*
%TD*%
D11*
%TO.C,R29*%
X115070000Y-120785716D03*
X115070000Y-119135716D03*
%TD*%
D141*
%TO.C,D4*%
X173201833Y-107712500D03*
X173201833Y-107022500D03*
%TD*%
D11*
%TO.C,R15*%
X115070000Y-90285716D03*
X115070000Y-88635716D03*
%TD*%
D137*
%TO.C,R65*%
X174906833Y-122540000D03*
X173256833Y-122540000D03*
%TD*%
D10*
%TO.C,R37*%
X155245000Y-114837000D03*
X156895000Y-114837000D03*
%TD*%
D139*
%TO.C,Q3*%
X169261833Y-112053666D03*
X169261833Y-113353666D03*
X171261833Y-112703666D03*
%TD*%
D141*
%TO.C,D2*%
X173201833Y-119432500D03*
X173201833Y-118742500D03*
%TD*%
D10*
%TO.C,R2*%
X154588335Y-83235000D03*
X156238335Y-83235000D03*
%TD*%
D137*
%TO.C,FB1*%
X99417500Y-60380000D03*
X97767500Y-60380000D03*
%TD*%
D10*
%TO.C,R10*%
X148365000Y-135130000D03*
X150015000Y-135130000D03*
%TD*%
D11*
%TO.C,R9*%
X115820000Y-64505000D03*
X115820000Y-62855000D03*
%TD*%
D139*
%TO.C,Q1*%
X169341833Y-123720999D03*
X169341833Y-125020999D03*
X171341833Y-124370999D03*
%TD*%
D11*
%TO.C,R19*%
X115070000Y-99000000D03*
X115070000Y-97350000D03*
%TD*%
%TO.C,R18*%
X118445000Y-96910713D03*
X118445000Y-95260713D03*
%TD*%
D10*
%TO.C,R41*%
X155418000Y-108741000D03*
X157068000Y-108741000D03*
%TD*%
D137*
%TO.C,R66*%
X174906833Y-116803332D03*
X173256833Y-116803332D03*
%TD*%
D11*
%TO.C,R27*%
X115070000Y-116428568D03*
X115070000Y-114778568D03*
%TD*%
D137*
%TO.C,R67*%
X174906833Y-111066666D03*
X173256833Y-111066666D03*
%TD*%
D10*
%TO.C,R3*%
X161250835Y-83285000D03*
X162900835Y-83285000D03*
%TD*%
%TO.C,R38*%
X158420000Y-113440000D03*
X160070000Y-113440000D03*
%TD*%
D143*
%TO.C,R35*%
X151020000Y-96125000D03*
X151020000Y-97775000D03*
%TD*%
M02*
